<svg xmlns="http://www.w3.org/2000/svg" xmlns:xlink="http://www.w3.org/1999/xlink" width="182.45" height="268.92" viewBox="0 0 182.45 268.92"><defs><linearGradient id="9963a4f2-67a5-436e-b953-142aa924ad3e" x1="-438.17" y1="31.73" x2="-437.46" y2="33.35" gradientTransform="translate(3008.85 -195.16) scale(6.58 11.78)" gradientUnits="userSpaceOnUse"><stop offset="0" stop-color="#010101" stop-opacity="0"/><stop offset="0.95" stop-color="#010101"/></linearGradient><linearGradient id="93e967f8-3ed6-4fb4-b25a-92c2536011e6" x1="-449.76" y1="29.62" x2="-451.53" y2="31.94" gradientTransform="translate(7669.16 -166.89) scale(16.83 12.53)" xlink:href="#9963a4f2-67a5-436e-b953-142aa924ad3e"/><linearGradient id="3d227b5c-751a-4d24-abca-594975d4249c" x1="-456.05" y1="-6.8" x2="-452.58" y2="-6.6" gradientTransform="translate(32563.82 1100.4) scale(71.37 150.26)" xlink:href="#9963a4f2-67a5-436e-b953-142aa924ad3e"/><linearGradient id="2f803be2-3d37-420a-bcbb-921740b57075" x1="-455.31" y1="-6.81" x2="-457.81" y2="-6.74" gradientTransform="translate(32665.2 1107.18) scale(71.37 150.27)" xlink:href="#9963a4f2-67a5-436e-b953-142aa924ad3e"/><linearGradient id="95790f10-a510-48cf-a7e2-fe78bcddcb8c" x1="-456.35" y1="-7.44" x2="-456.78" y2="-4.98" gradientTransform="translate(53270.11 1328.59) scale(116.53 172.38)" gradientUnits="userSpaceOnUse"><stop offset="0.12" stop-color="#010101" stop-opacity="0"/><stop offset="0.95" stop-color="#010101"/></linearGradient><linearGradient id="e1f7633c-ea96-4f65-b1e3-d12ed267f1c4" x1="-455.57" y1="-1.97" x2="-455.61" y2="2.76" gradientTransform="translate(30534.3 303.11) scale(66.82 55.44)" xlink:href="#9963a4f2-67a5-436e-b953-142aa924ad3e"/><linearGradient id="72e2da49-be74-480e-8864-2b63e645d033" x1="-455.35" y1="-1.97" x2="-455.4" y2="2.76" gradientTransform="translate(27508.49 303.1) scale(60.2 55.44)" xlink:href="#9963a4f2-67a5-436e-b953-142aa924ad3e"/><linearGradient id="896be8f2-0569-4268-ba9d-f43d34f34fdc" x1="-448.79" y1="21" x2="-447.79" y2="21" gradientTransform="translate(6311.53 -150.83) scale(13.84 15.98)" gradientUnits="userSpaceOnUse"><stop offset="0" stop-color="#e5c6d6"/><stop offset="0.42" stop-color="#ead4d0"/><stop offset="1" stop-color="#f0e9cb"/></linearGradient><linearGradient id="ba6f1bb6-0419-4747-8b67-b6eb9329ac00" x1="-446.16" y1="68.2" x2="-445.16" y2="68.2" gradientTransform="translate(4892.09 -224.99) scale(10.76 6.37)" xlink:href="#896be8f2-0569-4268-ba9d-f43d34f34fdc"/><linearGradient id="6cba134e-9d6f-47cf-bc11-37e41e9ac769" x1="-238.96" y1="4.73" x2="-241.13" y2="4.95" gradientTransform="translate(2302.62 -192.26) scale(4.74 13.95)" xlink:href="#9963a4f2-67a5-436e-b953-142aa924ad3e"/><linearGradient id="1d0bd85d-4a0c-47d2-98b7-458e72a409c1" x1="270.2" y1="68.99" x2="274.35" y2="68.74" gradientTransform="translate(788.18 -290.59) scale(1.43 4.2)" xlink:href="#9963a4f2-67a5-436e-b953-142aa924ad3e"/><linearGradient id="21e713c0-500c-4a21-8eac-ff60176541a5" x1="-30.73" y1="29.38" x2="-32.28" y2="29.63" gradientTransform="translate(1231.75 -264.16) scale(2.68 4.94)" xlink:href="#9963a4f2-67a5-436e-b953-142aa924ad3e"/><linearGradient id="b31ab7e5-07cb-4448-9741-d2b4f8dc39ee" x1="-389.6" y1="148.91" x2="-388.52" y2="150.55" gradientTransform="translate(2970.04 -251.3) scale(6.51 5.81)" xlink:href="#9963a4f2-67a5-436e-b953-142aa924ad3e"/><linearGradient id="1097f3f5-7072-41b3-8fb0-a6629648a459" x1="-212.92" y1="44.65" x2="-209.79" y2="44.7" gradientTransform="translate(2190.06 -217.78) scale(4.78 9.75)" xlink:href="#9963a4f2-67a5-436e-b953-142aa924ad3e"/><linearGradient id="7eda6836-a807-402c-980d-e0853b4d2e5e" x1="-430.29" y1="40.19" x2="-429.29" y2="40.19" gradientTransform="translate(2094.8 -203.56) scale(4.59 9.88)" xlink:href="#9963a4f2-67a5-436e-b953-142aa924ad3e"/><linearGradient id="82a789b9-f8b2-43d5-a247-2ca6d5d429ed" x1="-437.41" y1="31.9" x2="-436.41" y2="31.9" gradientTransform="translate(2824.6 -185.94) scale(6.18 11.92)" xlink:href="#896be8f2-0569-4268-ba9d-f43d34f34fdc"/></defs><title>balAsset 1</title><g id="cbc5d674-90df-4ee2-90f1-26e6de2ed58f" data-name="Layer 2"><g id="c3bc4db1-84d5-42d4-b1c9-009f499c5ea5" data-name="48c2ca07-b158-4028-9b0e-220deeb879e3"><g id="744609bd-48f0-411e-b494-8abc62145952" data-name="c82a30e7-c877-4cc4-89eb-35c1c0cbfbae"><g id="10a59f2f-4e7a-4d3a-bcb4-6a9dd8e4c935" data-name="bc2c8af0-f67b-4f96-a421-65a8b962128e"><path id="c9158168-e6db-41ee-ae5a-2628fff78225" data-name="a01f0ebb-39a9-4e87-adcd-4fc69ca2d8bc" d="M118.19,213.06H69.83L47.51,157.14l89.64-2.3Zm-46.58-2.65h44.71l17.24-52.94-82.2,2.11Z" fill="#809cdb"/><path id="dff84086-be4c-40ea-815b-36b5c33ebce4" data-name="3824b042-595d-47b2-b82a-bfba9f155915" d="M130,176.91l-3.39,1.8-3.18,10,3-2Z" fill="url(#9963a4f2-67a5-436e-b953-142aa924ad3e)"/><path id="e8d742b8-3c74-4d6e-b0d6-0640b4dcbb92" data-name="0267fbf3-a541-4f0c-87e6-928369dccf79" d="M104,186.51a13.42,13.42,0,0,0-6.74-.47,12.61,12.61,0,0,0-4.53,2.54,40.16,40.16,0,0,0-13.26,19c-.31,1-.55,2.19.15,3a3.51,3.51,0,0,0,2.22.87q9.7,1.4,19.48,2.36a6.2,6.2,0,0,0,2.35-.08,4.8,4.8,0,0,0,2-1.32c3.13-3.08,4.48-7.39,5.71-11.53a17.47,17.47,0,0,0,1-5.36C112.31,190.41,108.72,187.81,104,186.51Z" fill="#809cdb"/><path id="724a05e3-b600-4c31-86fa-63235605a2f2" data-name="bdfdc5dc-8894-4e8e-8d1b-d57d55d0133b" d="M94.21,197.82,96,202a7.71,7.71,0,0,0,1.61,2.73c1,1,2.56,1.34,3.9,1.94a9.84,9.84,0,0,1,4.22,3.6,43.35,43.35,0,0,1-7.64-.31,7.89,7.89,0,0,1-2.29-.59c-1.42-.67-1-2.4-2.38-3.17-1-.55-3.5-.18-4.51-.59C89.45,202.66,91.89,199.69,94.21,197.82Z" fill="url(#93e967f8-3ed6-4fb4-b25a-92c2536011e6)"/><path id="4c9ad623-b657-4245-8359-aecdb68fe454" data-name="8350688c-d035-4b72-a91a-7e46ef7c1a43" d="M26,20.86a68,68,0,0,0-15,90.55c3.14,4.84,6.89,9.28,9.79,14.26,5.57,9.58,8.24,21.4,16.89,28.27,6.75,5.36,15.81,6.56,24.4,7.31A9.85,9.85,0,0,0,66.3,161c3-1,4.39-4.56,4.82-7.73,1.17-8.74-1.69-17.44-4-26a203.06,203.06,0,0,1-4-86.78c1.5-8.72,6.17-24.23-5.08-28.23C47.34,8.49,34.27,14.33,26,20.86Z" fill="#809cdb"/><path id="2c71bafc-84d3-4e6d-b6cc-f2b70e7e410a" data-name="cd41439f-d892-4d71-801e-671c28d770d9" d="M32.34,19.88a68.07,68.07,0,0,0-15,90.53c3.14,4.83,6.9,9.27,9.8,14.26,5.57,9.57,8.23,21.38,16.88,28.27,6.76,5.35,15.82,6.55,24.4,7.3a10.19,10.19,0,0,0,4.22-.23c3-1,4.38-4.56,4.82-7.73,1.18-8.74-1.68-17.44-4-26a203.2,203.2,0,0,1-4-86.81c1.5-8.71,6.17-24.22-5.08-28.2C53.7,7.52,40.64,13.35,32.34,19.88Z" fill="url(#3d227b5c-751a-4d24-abca-594975d4249c)"/><path id="2588c239-c7f9-43b2-86c7-58bc5b771a7f" data-name="f515f51a-1fab-4cce-9503-51ac57cb8f51" d="M156.48,19.76a68.06,68.06,0,0,1,15,90.52c-3.14,4.84-6.9,9.27-9.8,14.26-5.57,9.57-8.23,21.4-16.88,28.27-6.76,5.36-15.82,6.56-24.4,7.31a10.24,10.24,0,0,1-4.23-.23c-3-1-4.38-4.56-4.81-7.73-1.18-8.74,1.68-17.45,4-26a203,203,0,0,0,4-86.81c-1.5-8.72-6.16-24.23,5.09-28.21C135.11,7.41,148.19,13.23,156.48,19.76Z" fill="#809cdb"/><path id="c04e5a46-6732-4d54-a769-f921723e3814" data-name="87fe8ea1-3815-43ab-91c1-dd6cf256bcc6" d="M153.17,22a68,68,0,0,1,15,90.52c-3.14,4.84-6.89,9.27-9.79,14.26-5.57,9.57-8.23,21.39-16.89,28.27-6.75,5.36-15.81,6.56-24.4,7.31a10.18,10.18,0,0,1-4.22-.23c-3-1-4.38-4.56-4.81-7.74-1.18-8.73,1.68-17.44,4-26a203.2,203.2,0,0,0,4-86.81c-1.5-8.72-6.17-24.23,5.07-28.23C131.81,9.6,144.88,15.41,153.17,22Z" fill="url(#2f803be2-3d37-420a-bcbb-921740b57075)"/><path id="ff0ce8e5-ca4b-487d-84dc-6264de1dfb88" data-name="8cbf799c-b7ab-4e51-8c4b-7be0d2bbf1ae" d="M25.2,46.88c2.53-10.53,7.19-20.79,14.85-28.45C51.18,7.3,67.33,2.82,83,.94,98.11-.88,114.07-.54,127.67,6.3c17.25,8.67,28.4,27.22,30.55,46.41s-3.93,38.71-14.37,55c-7.06,11-16.28,21.11-19.49,33.79-1.85,7.27-1.84,15.57-6.92,21.09-2.92,3.16-7.06,4.84-11.14,6.2-13.74,4.55-32,6.41-43.71-4.23-7.44-6.76-8.08-17.22-11.7-26.09-6-14.7-17.23-26.38-22.71-41.42a87.94,87.94,0,0,1-2.94-50.12Z" fill="#809cdb"/><path id="d73c1909-8345-4af9-ae8a-f67fe16eb908" data-name="42a00a07-330d-4011-9335-229024d9a270" d="M33.31,46.88c2.17-10.53,6.17-20.79,12.74-28.45C55.61,7.3,69.48,2.82,82.89.94c13-1.82,26.67-1.48,38.35,5.36C136,15,145.61,33.52,147.46,52.71s-3.38,38.71-12.35,55c-6.06,11-14,21.1-16.72,33.79-1.58,7.27-1.58,15.57-5.94,21.09-2.5,3.16-6.07,4.84-9.56,6.22-11.76,4.56-27.47,6.41-37.51-4.22-6.38-6.77-6.94-17.23-10-26.09-5.16-14.72-14.8-26.41-19.5-41.46A101.55,101.55,0,0,1,33.31,46.88Z" fill="url(#95790f10-a510-48cf-a7e2-fe78bcddcb8c)"/><rect id="3e0f4f56-fd1f-4a50-8a2d-42a2e69cf8a4" data-name="1688b1a6-57bc-41c3-8563-4289bace0eb1" x="59.46" y="210.9" width="66.83" height="58.02" rx="12.35" ry="12.35" fill="#809cdb"/><path id="1b04821c-9cd2-43c5-808c-7fb386375806" data-name="fabd3567-7de3-425d-90e7-374f5fa873af" d="M126.27,220.52v41.27a7.11,7.11,0,0,1-7.09,7.12H66.57a7.11,7.11,0,0,1-7.12-7.1h0V220.52a7.12,7.12,0,0,1,7.12-7.06h52.61A7.1,7.1,0,0,1,126.27,220.52Z" fill="url(#e1f7633c-ea96-4f65-b1e3-d12ed267f1c4)"/><path id="05d77df1-28cf-468c-8709-1debbc715968" data-name="abd9bb2e-7e2f-47b7-bad3-0ca5485fc388" d="M126.27,220.52v41.27a7.11,7.11,0,0,1-7.09,7.12h-46a7.12,7.12,0,0,1-7.1-7.12h0V220.52a7.12,7.12,0,0,1,7.1-7.06h46A7.1,7.1,0,0,1,126.27,220.52Z" fill="url(#72e2da49-be74-480e-8864-2b63e645d033)"/><path id="3b2ae166-7f88-415d-91aa-55fcc6aae56e" data-name="81515869-4ac6-49fa-a259-c8779cfa6bbb" d="M111.18,202.48a39.86,39.86,0,0,1,6.34,9,1.33,1.33,0,0,1,.21.91,1.31,1.31,0,0,1-.67.68q-6.47,4-13,7.73a3.53,3.53,0,0,1-2.06.61,3.15,3.15,0,0,1-1.25-.49,33.44,33.44,0,0,1-7.93-6.22,1.33,1.33,0,0,1-.49-1,1.36,1.36,0,0,1,.65-.82,105.76,105.76,0,0,1,8.82-6.19C104.3,205.23,108.11,202.48,111.18,202.48Z" fill="#fff"/><path id="d0c69a0c-11fe-4580-a5fb-545ff1408e21" data-name="d0ff8637-6ad0-49ad-a6db-407a08c0f5c2" d="M106.22,172.17c-3.27,1.15-6,3.8-9.41,4.23-.63.08-1.35.13-1.71.64a1.69,1.69,0,0,0,.28,1.88,8.84,8.84,0,0,1,1.29,1.57c.21.42.27.9.5,1.31A3.52,3.52,0,0,0,98.66,183c2.89,1.48,6,3,9.2,2.8a8.89,8.89,0,0,0,7.06-4.36c1.14-2,1.76-6.12.27-8.17C113.43,170.85,108.61,171.34,106.22,172.17Z" fill="#606161"/><path id="11af0469-58b0-4ad3-bdfe-633a7833300a" data-name="c34fd67b-57e4-49ac-b376-31947c5fded2" d="M113.25,186.94a4.69,4.69,0,0,1-1.68,2.44,3.48,3.48,0,0,1-2.14.43,12.43,12.43,0,0,1-2.16-.47,1.56,1.56,0,0,0-1,0,1.45,1.45,0,0,0-.62.58,6.1,6.1,0,0,0-.66,1.39,2.46,2.46,0,0,1-.42,1,2,2,0,0,1-1.55.46,1.72,1.72,0,0,1-.87-.14,1.69,1.69,0,0,1-.64-1.51c0-.84,0-1.68,0-2.51a9.55,9.55,0,0,1,2-6.53c1.33-1.87,2.86-3.77,5-4.61a13.23,13.23,0,0,1,4-.64,4.72,4.72,0,0,1,1.5.08c2,.54,1.06,3,.79,4.47A32.43,32.43,0,0,1,113.25,186.94Z" fill="url(#896be8f2-0569-4268-ba9d-f43d34f34fdc)"/><path id="e8d6bce5-c666-4426-9389-b686f5c0ef7f" data-name="31fad893-080a-4df1-bdea-b61b20f289cc" d="M105.25,182.41c0,.47-.08,1.08-.53,1.2a2.29,2.29,0,0,1-.33-.79c-.11-.27-.32-.54-.59-.56a.87.87,0,0,0-.44.16,1.55,1.55,0,0,0-.77.93c-.12.59.32,1.18.16,1.77-.06.21-.26.42-.47.36a.63.63,0,0,1-.28-.28,16.73,16.73,0,0,1-1.1-2.25,3.33,3.33,0,0,1-.25-.87,2.63,2.63,0,0,1,.17-1,6.13,6.13,0,0,1,2-2.64,18.51,18.51,0,0,1,2.85-1.76c.65-.35,2.09-1.18,2.83-.59s-.45,1.3-.84,1.62A6.56,6.56,0,0,0,105.25,182.41Z" fill="#606161"/><path id="823909e4-edf5-49ed-aa87-f61bf2071289" data-name="69920dd6-7919-43b4-9615-89762234639d" d="M114.38,194.41l5.89,8.24a2,2,0,0,0,1.26-1.67,7.39,7.39,0,0,0-.17-2.2,17.6,17.6,0,0,1-.22-3.32,3.51,3.51,0,0,1,.66-2.28c1-1.12,2.9-.78,3.9.3a7.38,7.38,0,0,1,1.5,4.08,43.7,43.7,0,0,1,.49,8.16,5.72,5.72,0,0,1-1.18,3.74,4.85,4.85,0,0,1-2.58,1.22c-5.12,1-10.56-1.66-13.57-5.92a19.07,19.07,0,0,1-3.25-12.57C107.74,186.29,112.73,192.12,114.38,194.41Z" fill="#809cdb"/><path id="1f832d65-ba8e-4271-9524-403f0e291e85" data-name="9c4c82f8-0650-448d-b306-d5d7c5e4e421" d="M83.53,204.88c-.33,1.1-.59,2.4.1,3.33s1.94,1.08,3.07,1.18l3.2.24c1.91.15,4.11.18,5.38-1.27a6.26,6.26,0,0,0,1-2,2.05,2.05,0,0,0,.16-1.44,3.07,3.07,0,0,0-.93-1c-1.32-1.26-1.05-3.48-.14-5.06s2.32-2.82,3.22-4.4a8.07,8.07,0,0,0,1-3.53,1.91,1.91,0,0,0-.13-1,2,2,0,0,0-.91-.81C90.46,185.09,85.06,199.72,83.53,204.88Z" fill="none"/><path id="290a7114-20a5-407a-a228-d9e996b9cded" data-name="daea882e-a8ae-425c-b364-44cc017110d4" d="M99.73,206.82a3,3,0,0,1,1.17.24,2.85,2.85,0,0,1,1.22,2.31,3.5,3.5,0,0,1,0,1.51,2.38,2.38,0,0,1-1.18,1.26,6.56,6.56,0,0,1-3.89.35c-.84-.09-1.86-.35-2.06-1.17-.11-.44,0-1-.42-1.24a.7.7,0,0,0-.35-.06,7.32,7.32,0,0,1-1.48,0,1.56,1.56,0,0,1-1.18-.8,2,2,0,0,1,.1-1.48c.51-1.4,1.36-1.61,2.65-1.32A35.13,35.13,0,0,0,99.73,206.82Z" fill="url(#ba6f1bb6-0419-4747-8b67-b6eb9329ac00)"/><path id="30abaae7-de97-4ffb-b3a9-43f45b7d1ca9" data-name="73a70fdd-24a7-4fba-8601-fe178d501e95" d="M116.18,185.82a2.34,2.34,0,0,1,1.46-1.13c2.88-.68,11.9-3.18,12.43-7.48a1.44,1.44,0,0,1,1.58-1.11c1.41,0,3.66,13.3,3.28,13.58s-1.66-.33-2.35-.94a5.2,5.2,0,0,0-5.07-1.12c-1.14.35-3.22.83-5.16,1.25-1.4.3-2.72.59-3.57.74a2,2,0,0,1-1.94-.67,3.42,3.42,0,0,1-.85-2.8Z" fill="#809cdb"/><ellipse id="3bf12ff1-35fd-4906-9975-49a166991e7e" data-name="a5d4c195-bb7c-42be-93af-9f0e9d8222b3" cx="133.88" cy="183.25" rx="2.36" ry="6.97" transform="translate(-41.5 39.21) rotate(-14.45)" fill="#809cdb"/><ellipse id="6046ce4a-c005-405d-a385-2aea6be15baf" data-name="c73e7bb7-744b-4428-a9e7-cde43712b36b" cx="133.88" cy="183.25" rx="2.36" ry="6.97" transform="translate(-41.5 39.21) rotate(-14.45)" fill="url(#6cba134e-9d6f-47cf-bc11-37e41e9ac769)"/><ellipse id="0e761ea8-5ca3-466b-b914-775e287bd138" data-name="a17628c3-61f2-4854-a372-35d205f046eb" cx="133.67" cy="183.34" rx="0.71" ry="2.1" transform="translate(-41.52 39.16) rotate(-14.45)" fill="url(#1d0bd85d-4a0c-47d2-98b7-458e72a409c1)"/><path id="3b4c8925-a05f-4cdd-88c8-036ab504fa56" data-name="6639c9bc-ba33-4061-a2ed-5fd8385ec031" d="M132.72,181l-1.8.24s.69,4.33,1.45,4.7l1.23-.9Z" fill="url(#21e713c0-500c-4a21-8eac-ff60176541a5)"/><path id="2b2bbdaf-54fa-47de-a1e9-cf6800428cf3" data-name="c620eca3-d71a-4b1a-bafb-50c17f625311" d="M120.26,186.62s.48,2.2,2.11,2.26l-4,.91s-1.44-.08-1.72-.66-1.72-2.59.31-4.15l3.24-1A4.93,4.93,0,0,0,120.26,186.62Z" fill="url(#b31ab7e5-07cb-4448-9741-d2b4f8dc39ee)"/><path id="cc9d9d9d-bd07-4ad4-b047-fe3f3d8faba3" data-name="1761c626-54b9-4841-991f-c7e626e92a43" d="M129.82,178.76a16.75,16.75,0,0,0,2.55,9.75,5.94,5.94,0,0,0-4-1.08s-1.18-4.35-.67-5.56A18.35,18.35,0,0,1,129.82,178.76Z" fill="url(#1097f3f5-7072-41b3-8fb0-a6629648a459)"/><path id="488fe3fd-d8ee-43fd-bd3b-5fc239ef554f" data-name="c04acdca-3598-478d-8657-c14d3054a58d" d="M120.23,189.3l1.14,6.55v2.66l3.48-.77-.42-2.63L123,188.62Z" fill="#809cdb"/><path id="68e17716-5ada-47fa-942d-a4f7a1eb25a2" data-name="ddec2b10-f66f-4485-a297-0659253884c8" d="M120.23,189.3l1.14,6.55v2.66l3.48-.77-.42-2.63L123,188.62Z" fill="url(#7eda6836-a807-402c-980d-e0853b4d2e5e)"/><path id="feabdd4b-7a92-4c04-bff1-568a950b8e7d" data-name="9e0d5c7d-5b43-45b5-8483-77eb880b027f" d="M121.62,196.09a9.47,9.47,0,0,1-1.21-4.71,2.85,2.85,0,0,1,.38-2.07,2.62,2.62,0,0,1,1.32-.73,3.75,3.75,0,0,1,2.22-.19,2.78,2.78,0,0,1,1.6,1.72,8.14,8.14,0,0,1,.34,2.4l.11,2.53.14,3.31a2.19,2.19,0,0,1-.2,1.26C124.82,201.92,122.24,197,121.62,196.09Z" fill="url(#82a789b9-f8b2-43d5-a247-2ca6d5d429ed)"/><rect id="5a80447f-4214-4dcc-b92d-b65249aaeaa6" data-name="58bec299-bfc2-4e45-bde5-6639dceecd2f" x="59.83" y="222.77" width="65.72" height="9.55" fill="#809cdb" opacity="0.24" style="isolation:isolate"/><rect id="18eb2dad-e8e3-4177-b52f-9efe089a91e9" data-name="84e4fe4f-e296-49b8-b86a-228c958ab9dc" x="59.83" y="235.99" width="65.72" height="9.55" fill="#809cdb" opacity="0.24" style="isolation:isolate"/><rect id="d63baa6d-3c5c-4b1e-80d0-48d29bf142bb" data-name="f6852046-b590-4b53-82bc-ee174056e2da" x="59.83" y="249.21" width="65.72" height="9.55" fill="#809cdb" opacity="0.24" style="isolation:isolate"/></g></g></g></g></svg>