<svg xmlns="http://www.w3.org/2000/svg" xmlns:xlink="http://www.w3.org/1999/xlink" width="288.09" height="245.05" viewBox="0 0 288.09 245.05"><defs><linearGradient id="035e639f-044c-4956-9b8f-bb77a809b271" x1="-267.86" y1="551.53" x2="-267.36" y2="550.37" gradientTransform="matrix(6.58, 0, 0, -11.78, 1934.87, 6632.22)" gradientUnits="userSpaceOnUse"><stop offset="0" stop-color="#010101" stop-opacity="0"/><stop offset="0.95" stop-color="#010101"/></linearGradient><linearGradient id="96124ee7-117b-412c-a06d-03b0f21f169f" x1="-265.47" y1="552.85" x2="-266.74" y2="551.19" gradientTransform="matrix(16.83, 0, 0, -12.53, 4622.62, 7080.25)" xlink:href="#035e639f-044c-4956-9b8f-bb77a809b271"/><linearGradient id="08254fc3-5586-47a5-acee-30e1374a043b" x1="-265.19" y1="568.12" x2="-262.7" y2="567.98" gradientTransform="matrix(71.37, 0, 0, -150.26, 19020.91, 85426.32)" xlink:href="#035e639f-044c-4956-9b8f-bb77a809b271"/><linearGradient id="9300faa1-0de3-4b92-a31a-e523b4f341b7" x1="-265.06" y1="568.11" x2="-266.86" y2="568.06" gradientTransform="matrix(71.37, 0, 0, -150.27, 19122.29, 85438.52)" xlink:href="#035e639f-044c-4956-9b8f-bb77a809b271"/><linearGradient id="2e39cc60-1a1f-4ae0-b7c1-ae04fb1c5443" x1="-265.06" y1="568.47" x2="-265.37" y2="566.71" gradientTransform="matrix(116.53, 0, 0, -172.38, 31036.03, 98033.51)" gradientUnits="userSpaceOnUse"><stop offset="0.12" stop-color="#010101" stop-opacity="0"/><stop offset="0.95" stop-color="#010101"/></linearGradient><linearGradient id="8200aa3e-9402-441f-a854-a1ae84fd7f5b" x1="-265.13" y1="566.72" x2="-265.16" y2="563.32" gradientTransform="matrix(66.82, 0, 0, -55.44, 17867.17, 31564.23)" xlink:href="#035e639f-044c-4956-9b8f-bb77a809b271"/><linearGradient id="1180a0ba-4a2f-45c2-8ce2-b915193322b5" x1="-265.16" y1="566.72" x2="-265.2" y2="563.32" gradientTransform="matrix(60.2, 0, 0, -55.44, 16115.32, 31564.21)" xlink:href="#035e639f-044c-4956-9b8f-bb77a809b271"/><linearGradient id="45f8fe0b-4c06-4075-9595-c3515ddc7f22" x1="-266.3" y1="556.15" x2="-265.58" y2="556.15" gradientTransform="matrix(13.84, 0, 0, -15.98, 3840.33, 9027.03)" gradientUnits="userSpaceOnUse"><stop offset="0" stop-color="#e5c6d6"/><stop offset="0.42" stop-color="#ead4d0"/><stop offset="1" stop-color="#f0e9cb"/></linearGradient><linearGradient id="bab8abb0-3531-47c2-9a00-a62b7bf60fc1" x1="-266.26" y1="536.74" x2="-265.54" y2="536.74" gradientTransform="matrix(10.76, 0, 0, -6.37, 3013.76, 3574.84)" xlink:href="#45f8fe0b-4c06-4075-9595-c3515ddc7f22"/><linearGradient id="c63ddd7c-14dd-4604-9e9f-8f986395cc16" x1="-123.39" y1="571.16" x2="-124.94" y2="571" gradientTransform="matrix(4.73, 0, 0, -13.93, 1505.93, 7866.08)" xlink:href="#035e639f-044c-4956-9b8f-bb77a809b271"/><linearGradient id="e008962c-c2c3-4f52-88c0-5cc4ba3a8dd5" x1="206.99" y1="551.63" x2="209.98" y2="551.8" gradientTransform="matrix(1.43, 0, 0, -4.2, 630.67, 2322.68)" xlink:href="#035e639f-044c-4956-9b8f-bb77a809b271"/><linearGradient id="5628fd46-fcf1-4e2c-aa05-6b43976b7f95" x1="0.13" y1="570.62" x2="-0.98" y2="570.43" gradientTransform="matrix(2.68, 0, 0, -4.94, 908.47, 2735.35)" xlink:href="#035e639f-044c-4956-9b8f-bb77a809b271"/><linearGradient id="f3ed991b-8878-4108-8442-5426f82f2bbe" x1="-232.71" y1="479.82" x2="-231.93" y2="478.64" gradientTransform="matrix(6.51, 0, 0, -5.81, 1909.61, 3235.06)" xlink:href="#035e639f-044c-4956-9b8f-bb77a809b271"/><linearGradient id="775ee73c-427e-4506-8007-903419c1ea64" x1="-112.34" y1="545.08" x2="-110.09" y2="545.05" gradientTransform="matrix(4.78, 0, 0, -9.75, 1462.64, 5473.67)" xlink:href="#035e639f-044c-4956-9b8f-bb77a809b271"/><linearGradient id="ffd12786-2f66-402e-b0c5-8947300eb923" x1="-269.03" y1="548.02" x2="-268.31" y2="548.02" gradientTransform="matrix(4.59, 0, 0, -9.88, 1403.85, 5560.52)" xlink:href="#035e639f-044c-4956-9b8f-bb77a809b271"/><linearGradient id="75316ef0-e6ed-46fc-b477-5ed34adc0e6b" x1="-268.13" y1="551.74" x2="-267.41" y2="551.74" gradientTransform="matrix(6.18, 0, 0, -11.92, 1827.8, 6719.94)" xlink:href="#45f8fe0b-4c06-4075-9595-c3515ddc7f22"/><linearGradient id="82f1c74e-8465-4b81-adc9-55bfdd51f473" x1="-265.27" y1="566.97" x2="-265.41" y2="566.54" gradientTransform="matrix(119.07, 0, 0, -75.38, 31827, 42856.68)" gradientUnits="userSpaceOnUse"><stop offset="0" stop-color="#fff" stop-opacity="0"/><stop offset="0.95" stop-color="#fff"/></linearGradient><linearGradient id="89c0e334-9925-4ef9-88bd-f88c30c57689" x1="-264.99" y1="564.92" x2="-265.13" y2="564.5" gradientTransform="matrix(85.89, 0, 0, -58.09, 22768.9, 33029.29)" xlink:href="#82f1c74e-8465-4b81-adc9-55bfdd51f473"/></defs><title>Asset 2</title><g id="943e279c-b60a-4e50-ac83-ca530db29eec" data-name="Layer 2"><g id="44585ec0-1d13-4f58-8719-b0771425e518" data-name="Layer 1"><g id="4ceea4c3-ab12-4846-a781-5153442a2fab" data-name="Cover Creative"><g id="bdd2412c-2651-47ac-825d-a2c0eb5e64de" data-name="marketing 3"><path id="6989bf1c-f880-482c-bb11-aec19b672356" data-name="Path 64" d="M147.42.16A91.71,91.71,0,0,0,82.58,34.37c-14.09,17.85-21,40.41-34.3,58.85s-32.91,32.7-42.62,53.41c-14.59,31.09.18,72.62,31.12,87.52,17.18,8.27,36.94,8.72,56,9L209.06,245c13.71.21,27.75.37,40.75-4,25.66-8.66,43.63-37.8,36.83-64-5.38-20.71-23.82-36.77-26.41-58-1.46-12,2.42-24,2.6-36C263.55,33.61,190.11-2.76,147.42.16Z" fill="#809cdb" opacity="0.24" style="isolation:isolate"/><path id="f77b7de7-fbf8-4d22-8a56-65c73476bc90" data-name="Path 65" d="M168.06,159H133.32l-16-40.18,64.4-1.65Zm-33.46-1.87h32.12l12.39-38-59.06,1.52Z" fill="#809cdb"/><path id="029f795d-b481-4186-8760-3bb7ca0c08f3" data-name="Path 66" d="M176.54,133l-2.44,1.3-2.29,7.17,2.16-1.45Z" fill="url(#035e639f-044c-4956-9b8f-bb77a809b271)"/><path id="9e3bfe99-63ea-477c-ba67-f9719ac8a8b3" data-name="Path 67" d="M157.87,140a9.48,9.48,0,0,0-4.84-.34,9,9,0,0,0-3.26,1.82,28.83,28.83,0,0,0-9.52,13.68,2.21,2.21,0,0,0,.1,2.15,2.56,2.56,0,0,0,1.59.63q7,1,14,1.69a4.57,4.57,0,0,0,1.69-.05,3.59,3.59,0,0,0,1.44-.95c2.24-2.21,3.21-5.31,4.1-8.29a12.39,12.39,0,0,0,.73-3.85C163.84,142.78,161.26,140.88,157.87,140Z" fill="#809cdb"/><path id="3ebdf720-e94d-47b3-8842-4c65ecf871e9" data-name="Path 68" d="M150.84,148.07l1.26,3a5.66,5.66,0,0,0,1.16,2,9.29,9.29,0,0,0,2.8,1.39,7.14,7.14,0,0,1,3,2.59,31.61,31.61,0,0,1-5.5-.23,5.5,5.5,0,0,1-1.64-.42c-1-.48-.73-1.72-1.71-2.28-.7-.4-2.51-.12-3.24-.42A10.6,10.6,0,0,1,150.84,148.07Z" fill="url(#96124ee7-117b-412c-a06d-03b0f21f169f)"/><path id="84e2188a-1374-4321-aca9-7075ab63d9c6" data-name="Path 69" d="M101.81,20.92A48.91,48.91,0,0,0,91,86c2.26,3.47,5,6.66,7,10.24,4,6.88,5.92,15.37,12.14,20.31,4.85,3.85,11.36,4.71,17.53,5.25a7.21,7.21,0,0,0,3-.16c2.17-.75,3.15-3.28,3.46-5.56.85-6.28-1.21-12.53-2.85-18.65a145.82,145.82,0,0,1-2.88-62.35c1.08-6.26,4.44-17.41-3.64-20.28C117.16,12,107.77,16.23,101.81,20.92Z" fill="#809cdb"/><path id="139830a7-d01f-41dc-93e7-da34e4e1f8ba" data-name="Path 70" d="M106.38,20.22a48.89,48.89,0,0,0-10.76,65c2.25,3.48,4.95,6.67,7,10.25,4,6.88,5.92,15.37,12.14,20.31,4.85,3.85,11.36,4.71,17.53,5.25a7.38,7.38,0,0,0,3-.16c2.18-.75,3.15-3.28,3.46-5.56.85-6.28-1.21-12.53-2.85-18.65a145.76,145.76,0,0,1-2.87-62.37c1.07-6.27,4.43-17.41-3.65-20.27C121.73,11.34,112.34,15.53,106.38,20.22Z" fill="url(#08254fc3-5586-47a5-acee-30e1374a043b)"/><path id="c0c7147d-9599-47df-b222-bd34f0c2c77f" data-name="Path 71" d="M195.57,20.13a48.91,48.91,0,0,1,10.77,65.05c-2.26,3.47-5,6.66-7,10.24-4,6.88-5.92,15.37-12.14,20.31-4.85,3.85-11.36,4.71-17.53,5.25a7.38,7.38,0,0,1-3-.16c-2.17-.75-3.15-3.28-3.46-5.56-.84-6.28,1.21-12.53,2.85-18.65a145.76,145.76,0,0,0,2.87-62.37C167.79,28,164.43,16.83,172.51,14,180.22,11.25,189.62,15.44,195.57,20.13Z" fill="#809cdb"/><path id="1445bf2a-5b1d-4bfe-b7fa-bc7bf81682fc" data-name="Path 72" d="M193.2,21.72a48.89,48.89,0,0,1,10.76,65c-2.25,3.48-5,6.66-7,10.25-4,6.87-5.92,15.37-12.14,20.31-4.85,3.85-11.36,4.71-17.53,5.25a7.38,7.38,0,0,1-3-.16c-2.18-.75-3.15-3.28-3.46-5.56-.85-6.28,1.21-12.53,2.85-18.65a145.76,145.76,0,0,0,2.87-62.37c-1.07-6.27-4.43-17.42,3.65-20.29C177.85,12.83,187.24,17,193.2,21.72Z" fill="url(#9300faa1-0de3-4b92-a31a-e523b4f341b7)"/><path id="c78f8d55-984d-474b-9860-da992656704e" data-name="Path 73" d="M101.25,39.62c1.81-7.57,5.16-14.94,10.67-20.44,8-8,19.6-11.22,30.83-12.57,10.85-1.31,22.32-1.06,32.09,3.85,12.4,6.23,20.41,19.56,21.95,33.35S194,71.62,186.47,83.29c-5.07,7.9-11.7,15.17-14,24.28-1.33,5.22-1.33,11.19-5,15.15-2.09,2.27-5.07,3.48-8,4.45-9.87,3.28-23,4.61-31.4-3-5.35-4.86-5.81-12.38-8.41-18.75-4.32-10.56-12.38-19-16.32-29.76a63.16,63.16,0,0,1-2.11-36Z" fill="#809cdb"/><path id="2e4ebf1b-bc61-40f9-8c9d-2fd0a7deb693" data-name="Path 74" d="M107.08,39.62c1.55-7.57,4.43-14.94,9.15-20.44,6.87-8,16.83-11.22,26.47-12.57,9.32-1.31,19.17-1.06,27.55,3.85,10.64,6.23,17.51,19.56,18.84,33.35s-2.42,27.81-8.87,39.48c-4.35,7.9-10.05,15.16-12,24.28-1.14,5.22-1.14,11.19-4.27,15.15-1.8,2.27-4.36,3.48-6.87,4.47-8.45,3.28-19.74,4.61-26.95-3-4.59-4.87-5-12.38-7.22-18.75-3.7-10.57-10.63-19-14-29.78A73,73,0,0,1,107.08,39.62Z" fill="url(#2e39cc60-1a1f-4ae0-b7c1-ae04fb1c5443)"/><rect id="9d336793-e99b-42a9-b2f4-a53ae5f6a8c2" data-name="Rectangle 56" x="125.86" y="157.47" width="48.02" height="41.69" rx="8.87" ry="8.87" fill="#809cdb"/><path id="df9b4141-edd7-4414-8492-d172b4a4d45b" data-name="Path 75" d="M173.87,164.38V194a5.11,5.11,0,0,1-5.1,5.12H131a5.1,5.1,0,0,1-5.11-5.1V164.38a5.1,5.1,0,0,1,5.11-5.07h37.8a5.1,5.1,0,0,1,5.1,5.07Z" fill="url(#8200aa3e-9402-441f-a854-a1ae84fd7f5b)"/><path id="eae31dd3-aea5-452a-8d81-a49b1ab64595" data-name="Path 76" d="M173.87,164.38V194a5.11,5.11,0,0,1-5.1,5.12H135.71a5.1,5.1,0,0,1-5.09-5.12h0V164.38a5.09,5.09,0,0,1,5.09-5.07h33.06A5.1,5.1,0,0,1,173.87,164.38Z" fill="url(#1180a0ba-4a2f-45c2-8ce2-b915193322b5)"/><path id="786f1f8a-c205-4323-8501-2cec220ea653" data-name="Path 77" d="M163,151.42a28.54,28.54,0,0,1,4.56,6.45.71.71,0,0,1-.33,1.15c-3.1,1.89-6.22,3.75-9.36,5.55a2.51,2.51,0,0,1-1.48.47,2.27,2.27,0,0,1-.89-.35,23.77,23.77,0,0,1-5.7-4.47.93.93,0,0,1-.35-.71.94.94,0,0,1,.46-.59q3.06-2.38,6.34-4.45C158.08,153.39,160.82,151.42,163,151.42Z" fill="#fff"/><path id="cb94e7ec-6a6c-4231-b8f8-cc8969076d69" data-name="Path 78" d="M159.46,129.64c-2.35.83-4.3,2.73-6.76,3-.45.06-1,.09-1.23.46a1.22,1.22,0,0,0,.21,1.35,6.23,6.23,0,0,1,.92,1.13c.15.3.19.65.36.94a2.39,2.39,0,0,0,1.07.84c2.08,1.07,4.28,2.16,6.61,2a6.37,6.37,0,0,0,5.07-3.14c.82-1.44,1.27-4.39.2-5.86C164.64,128.69,161.18,129,159.46,129.64Z" fill="#606161"/><path id="bce5a365-844d-457a-8166-ae158ff2e9a9" data-name="Path 79" d="M164.51,140.25a3.37,3.37,0,0,1-1.2,1.76,2.51,2.51,0,0,1-1.54.3,10.3,10.3,0,0,1-1.56-.33,1.11,1.11,0,0,0-.72,0,1,1,0,0,0-.45.43,4.49,4.49,0,0,0-.47,1,1.82,1.82,0,0,1-.3.7,1.47,1.47,0,0,1-1.12.33,1.33,1.33,0,0,1-.62-.1,1.23,1.23,0,0,1-.46-1.09c0-.6,0-1.2,0-1.8a9,9,0,0,1,.53-3.18,11.58,11.58,0,0,1,4.49-4.82A9.27,9.27,0,0,1,164,133a3.49,3.49,0,0,1,1.07.05c1.43.39.76,2.19.56,3.22A22.39,22.39,0,0,1,164.51,140.25Z" fill="url(#45f8fe0b-4c06-4075-9595-c3515ddc7f22)"/><path id="91c30d9f-cf90-45af-b0d8-ca8a0fc72512" data-name="Path 80" d="M158.76,137c0,.34,0,.77-.38.86a1.81,1.81,0,0,1-.24-.57c-.07-.19-.22-.39-.42-.39a.51.51,0,0,0-.31.11,1.1,1.1,0,0,0-.56.67c-.08.42.23.84.12,1.27,0,.15-.19.3-.34.25a.39.39,0,0,1-.2-.2,12.65,12.65,0,0,1-.79-1.61,2.28,2.28,0,0,1-.18-.63,1.89,1.89,0,0,1,.12-.74,4.42,4.42,0,0,1,1.45-1.89,12.31,12.31,0,0,1,2.05-1.27c.46-.25,1.5-.84,2-.42s-.32.93-.61,1.16A4.73,4.73,0,0,0,158.76,137Z" fill="#606161"/><path id="2181263e-0cc0-4bb9-a827-028ad93727f4" data-name="Path 81" d="M165.33,145.64l4.22,5.92a1.4,1.4,0,0,0,.91-1.2,5.25,5.25,0,0,0-.12-1.58,12.75,12.75,0,0,1-.16-2.39,2.57,2.57,0,0,1,.48-1.63,2,2,0,0,1,2.8.21,5.31,5.31,0,0,1,1.08,2.93,31.13,31.13,0,0,1,.35,5.87,4.16,4.16,0,0,1-.85,2.69,3.46,3.46,0,0,1-1.86.87,10,10,0,0,1-9.74-4.25,13.73,13.73,0,0,1-2.34-9C160.56,139.79,164.14,144,165.33,145.64Z" fill="#809cdb"/><path id="842d0ae1-f893-49a9-99b8-8459d569889d" data-name="Path 82" d="M143.16,153.14a2.72,2.72,0,0,0,.07,2.4,2.89,2.89,0,0,0,2.21.84l2.29.18c1.38.1,3,.13,3.87-.91a4.51,4.51,0,0,0,.71-1.42,1.42,1.42,0,0,0,.12-1,2.27,2.27,0,0,0-.67-.71c-.95-.91-.76-2.5-.1-3.64s1.67-2,2.31-3.16a5.77,5.77,0,0,0,.75-2.53,1.51,1.51,0,0,0-.1-.7,1.33,1.33,0,0,0-.66-.58C148.14,138.93,144.26,149.44,143.16,153.14Z" fill="none"/><path id="83d0ceed-5bf2-411f-8df0-7c3275661466" data-name="Path 83" d="M154.8,154.54a2,2,0,0,1,.84.17,2,2,0,0,1,.87,1.66,2.24,2.24,0,0,1,0,1.09,1.72,1.72,0,0,1-.84.9,4.76,4.76,0,0,1-2.79.25c-.61-.06-1.34-.25-1.49-.84-.07-.32,0-.76-.29-.89a.48.48,0,0,0-.26,0,6.23,6.23,0,0,1-1.06,0,1.15,1.15,0,0,1-.85-.58,1.44,1.44,0,0,1,.07-1.06c.37-1,1-1.16,1.91-.95A25.59,25.59,0,0,0,154.8,154.54Z" fill="url(#bab8abb0-3531-47c2-9a00-a62b7bf60fc1)"/><path id="8564b6a9-cec4-41bb-b6f0-8c9afae71600" data-name="Path 84" d="M166.62,139.45a1.62,1.62,0,0,1,1-.81c2.07-.49,8.55-2.29,8.93-5.38a1,1,0,0,1,1.13-.8c1,0,2.63,9.56,2.36,9.76s-1.2-.23-1.69-.68a3.73,3.73,0,0,0-3.64-.8c-.82.25-2.32.6-3.71.9-1,.22-2,.42-2.57.53a1.44,1.44,0,0,1-1.39-.48,2.48,2.48,0,0,1-.61-2C166.53,139.6,166.58,139.53,166.62,139.45Z" fill="#809cdb"/><ellipse id="f4187239-94fc-44d6-9ddb-285b58aa8819" data-name="Ellipse 1" cx="179.07" cy="137.35" rx="1.7" ry="5" transform="matrix(0.97, -0.25, 0.25, 0.97, -28.66, 49.14)" fill="#809cdb"/><ellipse id="58b6c6f1-7c5e-43fc-8a8a-201cc79a043d" data-name="Ellipse 2" cx="179.07" cy="137.35" rx="1.7" ry="5" transform="matrix(0.97, -0.25, 0.25, 0.97, -28.66, 49.14)" fill="url(#c63ddd7c-14dd-4604-9e9f-8f986395cc16)"/><ellipse id="866abbcd-592f-480d-a455-80a3256397a9" data-name="Ellipse 3" cx="179.19" cy="137.66" rx="0.51" ry="1.51" transform="translate(-28.69 49.08) rotate(-14.45)" fill="url(#e008962c-c2c3-4f52-88c0-5cc4ba3a8dd5)"/><path id="5617edaa-fbf1-49ec-8c38-15ba3dc174ce" data-name="Path 85" d="M178.5,136l-1.29.17s.49,3.12,1,3.38l.89-.65Z" fill="url(#5628fd46-fcf1-4e2c-aa05-6b43976b7f95)"/><path id="44627a79-2e3e-4898-a678-414b04fa0522" data-name="Path 86" d="M169.55,140s.35,1.58,1.52,1.62l-2.9.65s-1-.05-1.23-.47-1.24-1.86.22-3l2.33-.71A3.61,3.61,0,0,0,169.55,140Z" fill="url(#f3ed991b-8878-4108-8442-5426f82f2bbe)"/><path id="8826f152-5948-4f5b-b58c-3bb639858c48" data-name="Path 87" d="M176.42,134.38a12.09,12.09,0,0,0,1.83,7,4.25,4.25,0,0,0-2.87-.77s-.84-3.13-.47-4A12.86,12.86,0,0,1,176.42,134.38Z" fill="url(#775ee73c-427e-4506-8007-903419c1ea64)"/><path id="561a2b3e-9af9-4bde-8308-6b1fb51a0dea" data-name="Path 88" d="M169.53,142l.82,4.7,0,1.91,2.5-.55-.3-1.89-1.06-4.66Z" fill="#809cdb"/><path id="c125bb53-560b-4a00-9d65-162798f522a4" data-name="Path 89" d="M169.53,142l.82,4.7,0,1.91,2.5-.55-.3-1.89-1.06-4.66Z" fill="url(#ffd12786-2f66-402e-b0c5-8947300eb923)"/><path id="6934e034-2d77-4e5e-8244-06a38d2e4a5a" data-name="Path 90" d="M170.53,146.83a6.82,6.82,0,0,1-.87-3.39,2,2,0,0,1,.27-1.48,1.88,1.88,0,0,1,.95-.53,2.62,2.62,0,0,1,1.59-.13,1.93,1.93,0,0,1,1.15,1.23,5.92,5.92,0,0,1,.25,1.72l.08,1.82.1,2.38a1.55,1.55,0,0,1-.15.9C172.83,151,171,147.48,170.53,146.83Z" fill="url(#75316ef0-e6ed-46fc-b477-5ed34adc0e6b)"/><path id="6733dea6-f438-4411-8fea-317d8b202a98" data-name="Path 91" d="M210.62,155.93a100.09,100.09,0,0,1,3.69,12.23c-1.45.18-2.91,0-4.36.12-4.73.26-8.95,2.9-12.92,5.46,2.39-1.54-5.66-9.21-1.52-12,1.83-1.27,5.31-1.53,7.44-2.32a66.79,66.79,0,0,0,7.67-3.45Z" fill="#fff"/><path id="1c21f6d8-fa21-4fd2-b3cc-4ec4201291d5" data-name="Path 92" d="M83.3,177.49a6.92,6.92,0,0,0-2-.59,7.82,7.82,0,0,0-2.54.37,113,113,0,0,1-16.37,2.42l-17.14,1.69q10.68,8,21,16.46a54.72,54.72,0,0,1,27-9,11.11,11.11,0,0,0,3.95-.66c5-2.21-.89-4.58-3.17-5.77Q88.79,179.7,83.3,177.49Z" fill="#fff"/><path id="087fc2a5-d6e5-4401-9c94-448ad197f188" data-name="Path 93" d="M215.7,204.42c5-2.27,10.36-3.45,15.54-5.19-4,1.92-8,3.88-11.3,6.88-4.61,4.26-7.41,10.42-12.75,13.72a15.61,15.61,0,0,1-13.62,1.25c.14,0,4.45-6.34,4.89-6.92,2.19-2.78,2.27-2.39,5.12-3,2.63-.56,2.53-.2,5-2.17a32.91,32.91,0,0,1,7.13-4.57Z" fill="#fff"/><path id="3928bb3a-ecda-4b53-b87a-a66296a9e801" data-name="Path 94" d="M86.26,149.06l6.82,7a2.59,2.59,0,0,0,.84.67,2.7,2.7,0,0,0,.85.14c4.33.25,8.66.67,13,1.26-1.19-2.45-5.87-4.89-8-6.45-1.7-1.23-3.62-1.53-5.75-1.89C92.64,149.59,87,149.85,86.26,149.06Z" fill="#fff"/><path id="11b16d53-a08b-4f5a-80c8-bf683c2b7c19" data-name="Path 95" d="M191.42,116.36A15.66,15.66,0,0,0,193,136c6.76,6.74,17.82,5.63,27.24,4.05.79,7.83,8.56,13.48,16.36,14.55s15.6-1.34,23.11-3.73a7.78,7.78,0,0,0,14.53,2.2c-4.88-6.08-9.79-12.22-13.25-19.2s-5.39-15-3.93-22.62c.53-2.76,1.13-6.39-1.36-7.71a5.56,5.56,0,0,0-2.51-.47,33,33,0,0,0-18.35,5.37c-1.63,1.07-3.29,2.33-5.24,2.44-1.56.09-3.05-.58-4.57-1-5.59-1.37-11.27,1.46-16.9.91C201.7,110.25,195.61,110.66,191.42,116.36Z" fill="url(#82f1c74e-8465-4b81-adc9-55bfdd51f473)"/><path id="01f5b9a0-c629-4014-99e1-07d6abbc4eb4" data-name="Path 96" d="M70,135.22a12.7,12.7,0,0,1-1.1,15.18c-4.9,5.19-12.86,4.34-19.66,3.12-.57,6-6.17,10.39-11.8,11.22s-11.26-1-16.67-2.88a6,6,0,0,1-4.68,4.83,5.67,5.67,0,0,1-5.79-3.15c3.52-4.69,7.06-9.42,9.56-14.8s3.88-11.54,2.83-17.44c-.38-2.11-.81-4.93,1-5.94a3.68,3.68,0,0,1,1.81-.36,22.72,22.72,0,0,1,13.24,4.15c1.18.82,2.38,1.79,3.78,1.88a10.78,10.78,0,0,0,3.3-.74c4-1.06,8.13,1.12,12.2.7C62.61,130.51,67,130.83,70,135.22Z" fill="url(#89c0e334-9925-4ef9-88bd-f88c30c57689)"/><path id="ad1f05a8-9c8b-4c12-b9b2-2ea1d3178c95" data-name="Path 97" d="M257.38,180.91a102.28,102.28,0,0,0-13.66-.77c.46,2.62,1,5.22,1.59,7.81,4.11-1.14,8.51-.16,12.51,1.32s7.84,3.46,12,4.4a1.14,1.14,0,0,0,1-.08c.46-.38.12-1.11-.24-1.58C266.62,186.86,264.25,181.71,257.38,180.91Z" fill="#fff"/><rect id="be271783-4da8-49d8-bdb6-268d43451107" data-name="Rectangle 57" x="126.13" y="166" width="47.22" height="6.86" fill="#809cdb" opacity="0.24" style="isolation:isolate"/><rect id="32f8859e-6d46-4b90-92c8-77294afc7e6e" data-name="Rectangle 58" x="126.13" y="175.5" width="47.22" height="6.86" fill="#809cdb" opacity="0.24" style="isolation:isolate"/><rect id="3a397e76-c4df-41ad-beb4-ad66819bb4c1" data-name="Rectangle 59" x="126.13" y="185" width="47.22" height="6.86" fill="#809cdb" opacity="0.24" style="isolation:isolate"/></g></g></g></g></svg>