<?xml version="1.0" encoding="utf-8"?>
<!-- Generator: Adobe Illustrator 22.0.0, SVG Export Plug-In . SVG Version: 6.00 Build 0)  -->
<svg version="1.1" id="Layer_1" xmlns="http://www.w3.org/2000/svg" xmlns:xlink="http://www.w3.org/1999/xlink" x="0px" y="0px"
	 viewBox="0 0 1148.5 680.7" style="enable-background:new 0 0 1148.5 680.7;" xml:space="preserve">
<style type="text/css">
	.st0{fill:url(#SVGID_1_);}
	.st1{opacity:0.24;fill:#809CDB;enable-background:new    ;}
	.st2{fill:#809CDB;}
	.st3{fill:url(#SVGID_2_);}
	.st4{fill:url(#SVGID_3_);}
	.st5{fill:url(#SVGID_4_);}
	.st6{fill:url(#SVGID_5_);}
	.st7{fill:url(#SVGID_6_);}
	.st8{fill:url(#SVGID_7_);}
	.st9{fill:url(#SVGID_8_);}
	.st10{fill:#FFFFFF;}
	.st11{fill:#606161;}
	.st12{fill:url(#SVGID_9_);}
	.st13{fill:none;}
	.st14{fill:url(#SVGID_10_);}
	.st15{fill:url(#SVGID_11_);}
	.st16{fill:url(#SVGID_12_);}
	.st17{fill:url(#SVGID_13_);}
	.st18{fill:url(#SVGID_14_);}
	.st19{fill:url(#SVGID_15_);}
	.st20{fill:url(#SVGID_16_);}
	.st21{fill:url(#SVGID_17_);}
	.st22{fill:url(#SVGID_18_);}
	.st23{fill:url(#SVGID_19_);}
</style>
<g transform="translate(-773.867)">
	
		<linearGradient id="SVGID_1_" gradientUnits="userSpaceOnUse" x1="1093.0835" y1="760.7695" x2="1093.0835" y2="759.7695" gradientTransform="matrix(1125 0 0 -672 -1228361.375 511237.0938)">
		<stop  offset="0" style="stop-color:#809CDB"/>
		<stop  offset="1" style="stop-color:#7D44C0"/>
	</linearGradient>
	<rect x="795" y="0" class="st0" width="1125" height="672"/>
	<g transform="translate(1150.848 -0.001)">
		<path class="st1" d="M404.1,0.5c-68.8,4.7-135,39.6-177.8,93.8c-38.6,48.9-57.6,110.8-94,161.4C95.8,306.4,42.1,345.2,15.5,402
			c-40,85.2,0.5,199.1,85.3,239.9c47.1,22.7,101.3,23.9,153.5,24.7l318.8,4.9c37.6,0.6,76.1,1,111.7-11
			c70.4-23.7,119.6-103.6,101-175.5c-14.7-56.8-65.3-100.8-72.4-159c-4-32.9,6.6-65.7,7.1-98.8C722.5,92.1,521.2-7.6,404.1,0.5z"/>
		<path class="st2" d="M460.7,436h-95.3l-44-110.2l176.6-4.5L460.7,436z M369,430.8h88.1l34-104.3l-161.9,4.2L369,430.8z"/>
		
			<linearGradient id="SVGID_2_" gradientUnits="userSpaceOnUse" x1="-82.2731" y1="757.283" x2="-81.5671" y2="755.663" gradientTransform="matrix(12.954 0 0 -23.21 1541.0989 17944.0117)">
			<stop  offset="0" style="stop-color:#010101;stop-opacity:0"/>
			<stop  offset="0.95" style="stop-color:#010101"/>
		</linearGradient>
		<path class="st3" d="M484,364.7l-6.7,3.6l-6.3,19.7l5.9-4L484,364.7z"/>
		<path class="st2" d="M432.8,383.7c-4.3-1.2-8.9-2.1-13.3-0.9c-3.3,1-6.3,2.7-8.9,5c-12.2,9.7-21.3,22.7-26.1,37.5
			c-0.6,2-1.1,4.3,0.3,5.9c1,1.2,2.8,1.5,4.4,1.7c12.8,1.8,25.5,3.4,38.4,4.6c1.5,0.2,3.1,0.2,4.6-0.1c1.5-0.5,2.9-1.4,3.9-2.6
			c6.2-6.1,8.8-14.6,11.2-22.7c1.2-3.4,1.9-7,2-10.6C449.1,391.4,442.1,386.2,432.8,383.7z"/>
		
			<linearGradient id="SVGID_3_" gradientUnits="userSpaceOnUse" x1="-66.9377" y1="757.1268" x2="-68.7047" y2="754.8118" gradientTransform="matrix(33.15 0 0 -24.6877 2644.0796 19109.6133)">
			<stop  offset="0" style="stop-color:#010101;stop-opacity:0"/>
			<stop  offset="0.95" style="stop-color:#010101"/>
		</linearGradient>
		<path class="st4" d="M413.5,405.9l3.5,8.3c0.7,2,1.7,3.8,3.2,5.4c2.1,2,5.1,2.6,7.7,3.8c3.4,1.5,6.3,4,8.3,7.1
			c-5,0.2-10.1,0-15.1-0.6c-1.6-0.2-3.1-0.5-4.5-1.2c-2.8-1.3-2-4.7-4.7-6.2c-1.9-1.1-6.9-0.3-8.9-1.2
			C404.1,415.5,408.9,409.6,413.5,405.9z"/>
		<path class="st2" d="M279.1,57.4c-54.5,42.9-67.2,120.2-29.5,178.3c6.2,9.5,13.6,18.3,19.3,28.1c11,18.9,16.2,42.1,33.3,55.7
			c13.3,10.5,31.1,12.9,48.1,14.4c2.8,0.4,5.6,0.3,8.3-0.4c6-2.1,8.6-9,9.5-15.2c2.3-17.2-3.3-34.4-7.8-51.1
			c-14.9-55.7-17.6-114.1-7.9-170.9c3-17.2,12.2-47.7-10-55.6C321.2,33,295.4,44.5,279.1,57.4z"/>
		
			<linearGradient id="SVGID_4_" gradientUnits="userSpaceOnUse" x1="-60.1162" y1="760.1555" x2="-56.6452" y2="759.9575" gradientTransform="matrix(140.5779 0 0 -295.9696 8710.3564 225155.7969)">
			<stop  offset="0" style="stop-color:#010101;stop-opacity:0"/>
			<stop  offset="0.95" style="stop-color:#010101"/>
		</linearGradient>
		<path class="st5" d="M291.6,55.4c-54.5,42.9-67.2,120.2-29.5,178.3c6.2,9.5,13.6,18.3,19.3,28.1c11,18.9,16.2,42.1,33.3,55.7
			c13.3,10.5,31.1,12.9,48.1,14.4c2.8,0.4,5.6,0.3,8.3-0.5c6-2.1,8.6-9,9.5-15.2c2.3-17.2-3.3-34.4-7.8-51.1
			c-14.9-55.8-17.6-114.1-7.9-171c3-17.2,12.2-47.7-10-55.6C333.7,31.1,308,42.6,291.6,55.4z"/>
		<path class="st2" d="M536.2,55.2c54.5,42.9,67.2,120.2,29.5,178.3c-6.2,9.5-13.6,18.3-19.3,28.1c-11,18.9-16.2,42.1-33.3,55.7
			c-13.3,10.5-31.2,12.9-48.1,14.4c-2.8,0.4-5.6,0.3-8.3-0.4c-6-2.1-8.6-9-9.5-15.2c-2.3-17.2,3.3-34.4,7.8-51.1
			c14.9-55.8,17.6-114.1,7.9-171c-3-17.2-12.1-47.7,10-55.6C494.1,30.8,519.8,42.3,536.2,55.2z"/>
		
			<linearGradient id="SVGID_5_" gradientUnits="userSpaceOnUse" x1="-59.3742" y1="760.1378" x2="-61.8782" y2="760.0627" gradientTransform="matrix(140.5783 0 0 -295.9983 8910.0703 225181.6719)">
			<stop  offset="0" style="stop-color:#010101;stop-opacity:0"/>
			<stop  offset="0.95" style="stop-color:#010101"/>
		</linearGradient>
		<path class="st6" d="M529.6,59.5c54.5,42.9,67.2,120.2,29.5,178.3c-6.2,9.5-13.6,18.3-19.3,28.1c-11,18.9-16.2,42.1-33.3,55.7
			c-13.3,10.5-31.1,12.9-48.1,14.4c-2.8,0.4-5.6,0.3-8.3-0.5c-6-2.1-8.6-9-9.5-15.2c-2.3-17.2,3.3-34.4,7.8-51.1
			c14.9-55.8,17.6-114.1,7.9-171c-3-17.2-12.2-47.7,10-55.6C487.6,35.2,513.3,46.7,529.6,59.5z"/>
		<path class="st2" d="M277.6,108.6c5-20.8,14.2-41,29.3-56c21.9-21.9,53.7-30.8,84.5-34.5c29.8-3.6,61.2-2.9,88,10.6
			c34,17.1,55.9,53.6,60.2,91.4c4.2,37.8-7.7,76.3-28.3,108.2c-13.9,21.7-32.1,41.6-38.4,66.6c-3.6,14.3-3.6,30.7-13.6,41.5
			c-5.7,6.2-13.9,9.5-21.9,12.2c-27.1,9-63.1,12.6-86.1-8.3c-14.7-13.3-15.9-33.9-23-51.4c-11.8-29-33.9-52-44.7-81.6
			C271.9,175.7,269.9,141.4,277.6,108.6L277.6,108.6z"/>
		
			<linearGradient id="SVGID_6_" gradientUnits="userSpaceOnUse" x1="-58.8527" y1="760.3895" x2="-59.2797" y2="757.9334" gradientTransform="matrix(229.531 0 0 -339.5541 13917.0391 258298.9375)">
			<stop  offset="0.12" style="stop-color:#010101;stop-opacity:0"/>
			<stop  offset="0.95" style="stop-color:#010101"/>
		</linearGradient>
		<path class="st7" d="M293.6,108.6c4.3-20.8,12.1-41,25.1-56c18.8-21.9,46.1-30.8,72.6-34.5c25.5-3.6,52.5-2.9,75.5,10.6
			c29.2,17.1,48,53.6,51.7,91.4s-6.7,76.3-24.3,108.2c-11.9,21.7-27.5,41.6-32.9,66.6c-3.1,14.3-3.1,30.7-11.7,41.5
			c-4.9,6.2-11.9,9.5-18.8,12.3c-23.2,9-54.1,12.6-73.9-8.3c-12.6-13.3-13.7-33.9-19.8-51.4c-10.2-29-29.1-52-38.4-81.7
			C288.6,175.4,286.9,141.4,293.6,108.6L293.6,108.6z"/>
		<path class="st2" d="M357.4,431.7h106.9c6.8,0,12.4,5.5,12.4,12.3v89.6c0,6.8-5.5,12.4-12.4,12.4H357.4c-6.8,0-12.4-5.5-12.4-12.4
			V444C345,437.2,350.6,431.7,357.4,431.7z"/>
		
			<linearGradient id="SVGID_7_" gradientUnits="userSpaceOnUse" x1="-59.8965" y1="760.5112" x2="-59.9405" y2="755.7822" gradientTransform="matrix(131.626 0 0 -109.201 8295.8389 83445.8203)">
			<stop  offset="0" style="stop-color:#010101;stop-opacity:0"/>
			<stop  offset="0.95" style="stop-color:#010101"/>
		</linearGradient>
		<path class="st8" d="M476.7,450.7v81.3c0,7.7-6.2,14-14,14H359.1c-7.7,0-14-6.2-14-14c0,0,0,0,0,0v-81.3c0.1-7.7,6.3-13.9,14-13.9
			h103.6C470.4,436.8,476.6,443,476.7,450.7z"/>
		
			<linearGradient id="SVGID_8_" gradientUnits="userSpaceOnUse" x1="-60.1623" y1="760.5103" x2="-60.2113" y2="755.7872" gradientTransform="matrix(118.579 0 0 -109.201 7552.4116 83445.7969)">
			<stop  offset="0" style="stop-color:#010101;stop-opacity:0"/>
			<stop  offset="0.95" style="stop-color:#010101"/>
		</linearGradient>
		<path class="st9" d="M476.7,450.7v81.3c0,7.7-6.2,14-14,14h-90.6c-7.7,0-14-6.3-14-14v-81.3c0-7.7,6.3-13.9,14-13.9h90.6
			C470.4,436.8,476.6,443,476.7,450.7z"/>
		<path class="st10" d="M446.9,415.1c5,5.3,9.2,11.2,12.5,17.7c0.4,0.5,0.5,1.2,0.4,1.8c-0.2,0.6-0.7,1.1-1.3,1.3
			c-8.5,5.2-17,10.3-25.7,15.2c-1.2,0.8-2.6,1.3-4.1,1.3c-0.9-0.2-1.7-0.5-2.5-1c-5.8-3.3-11.1-7.4-15.6-12.3c-0.6-0.5-0.9-1.2-1-2
			c0.2-0.7,0.7-1.3,1.3-1.6c5.6-4.4,11.4-8.4,17.4-12.2C433.4,420.5,440.9,415.1,446.9,415.1z"/>
		<path class="st11" d="M437.2,355.4c-6.4,2.3-11.8,7.5-18.5,8.3c-1.2,0.2-2.7,0.3-3.4,1.3s-0.3,2.6,0.6,3.7c1,0.9,1.8,2,2.5,3.1
			c0.4,0.8,0.5,1.8,1,2.6c0.7,1,1.8,1.8,2.9,2.3c5.7,2.9,11.7,5.9,18.1,5.5c5.8-0.4,11-3.6,13.9-8.6c2.2-4,3.5-12,0.5-16.1
			C451.4,352.8,441.9,353.8,437.2,355.4z"/>
		
			<linearGradient id="SVGID_9_" gradientUnits="userSpaceOnUse" x1="-69.6873" y1="757.8177" x2="-68.6873" y2="757.8177" gradientTransform="matrix(27.2503 0 0 -31.4771 2326.8418 24234.0703)">
			<stop  offset="0" style="stop-color:#E5C6D6"/>
			<stop  offset="0.42" style="stop-color:#EAD4D0"/>
			<stop  offset="1" style="stop-color:#F0E9CB"/>
		</linearGradient>
		<path class="st12" d="M451,384.5c-0.6,1.9-1.7,3.6-3.3,4.8c-1.3,0.7-2.8,1-4.2,0.8c-1.4-0.2-2.9-0.5-4.3-0.9
			c-0.6-0.2-1.3-0.3-2-0.1c-0.5,0.3-0.9,0.7-1.2,1.2c-0.5,0.8-1,1.8-1.3,2.7c-0.1,0.7-0.4,1.3-0.8,1.9c-0.9,0.7-2,1-3,0.9
			c-0.6,0.1-1.2,0-1.7-0.3c-0.9-0.7-1.4-1.8-1.3-3c-0.1-1.6,0-3.3,0.1-4.9c0-3,0.5-5.9,1.5-8.7c0.7-1.5,1.5-2.8,2.5-4.1
			c2.6-3.7,5.6-7.4,9.8-9.1c2.6-0.8,5.3-1.3,8-1.3c1-0.1,2-0.1,3,0.2c3.9,1.1,2.1,6,1.5,8.8C453.5,377.2,452.4,380.9,451,384.5
			L451,384.5z"/>
		<path class="st11" d="M435.2,375.6c0,0.9-0.2,2.1-1,2.4c-0.3-0.5-0.5-1-0.7-1.6c-0.2-0.5-0.6-1.1-1.2-1.1c-0.3,0-0.6,0.1-0.9,0.3
			c-0.7,0.4-1.3,1-1.5,1.8c-0.2,1.2,0.6,2.3,0.3,3.5c-0.1,0.4-0.5,0.8-0.9,0.7c-0.2-0.1-0.4-0.3-0.5-0.5c-0.8-1.4-1.6-2.9-2.2-4.4
			c-0.3-0.5-0.4-1.1-0.5-1.7c0-0.7,0.1-1.4,0.3-2c0.8-2.1,2.2-3.9,4-5.2c1.8-1.3,3.6-2.5,5.6-3.5c1.3-0.7,4.1-2.3,5.6-1.2
			s-0.9,2.6-1.7,3.2C437.2,368.6,435.4,372,435.2,375.6L435.2,375.6z"/>
		<path class="st2" d="M453.2,399.3l11.6,16.2c1.4-0.5,2.4-1.8,2.5-3.3c0.1-1.5,0-2.9-0.3-4.3c-0.3-2.2-0.5-4.4-0.4-6.5
			c-0.1-1.6,0.4-3.2,1.3-4.5c1.9-2.2,5.7-1.5,7.7,0.6s2.5,5.2,3,8c0.8,5.3,1.1,10.7,1,16.1c-0.1,2.6-0.5,5.5-2.3,7.4
			c-1.4,1.3-3.2,2.1-5.1,2.4c-10.1,2-20.8-3.3-26.7-11.7c-5-7.2-7.2-16-6.4-24.7C440.2,383.2,450,394.7,453.2,399.3z"/>
		<path class="st13" d="M392.5,419.8c-0.6,2.2-1.2,4.7,0.2,6.6s3.8,2.1,6.1,2.3l6.3,0.5c3.8,0.3,8.1,0.3,10.6-2.5
			c0.9-1.2,1.5-2.5,2-3.9c0.4-0.9,0.6-1.9,0.3-2.8c-0.5-0.8-1.1-1.4-1.8-1.9c-2.6-2.5-2.1-6.9-0.3-10s4.6-5.5,6.3-8.7
			c1.2-2.1,1.9-4.5,2-7c0.1-0.6,0-1.3-0.3-1.9c-0.4-0.7-1-1.3-1.8-1.6C406.1,380.9,395.5,409.7,392.5,419.8z"/>
		
			<linearGradient id="SVGID_10_" gradientUnits="userSpaceOnUse" x1="-73.0334" y1="753.9118" x2="-72.0344" y2="753.9118" gradientTransform="matrix(21.1926 0 0 -12.5016 1955.7836 9853.8945)">
			<stop  offset="0" style="stop-color:#E5C6D6"/>
			<stop  offset="0.42" style="stop-color:#EAD4D0"/>
			<stop  offset="1" style="stop-color:#F0E9CB"/>
		</linearGradient>
		<path class="st14" d="M424.4,423.7c0.8,0,1.6,0.2,2.3,0.5c1.6,0.8,2.1,2.8,2.4,4.6c0.2,1,0.2,2-0.1,3c-0.4,1.1-1.3,2-2.3,2.5
			c-2.3,1.2-5.1,1-7.7,0.7c-1.7-0.2-3.7-0.7-4.1-2.3c-0.2-0.9,0-2.1-0.8-2.4c-0.2-0.1-0.5-0.1-0.7-0.1c-1,0.1-1.9,0-2.9-0.1
			c-1-0.1-1.8-0.7-2.3-1.6c-0.3-1-0.2-2,0.2-2.9c1-2.8,2.7-3.2,5.2-2.6C417.1,423.6,420.9,423.4,424.4,423.7z"/>
		<path class="st2" d="M456.8,382.3c0.6-1.1,1.6-1.9,2.9-2.2c5.7-1.4,23.5-6.3,24.5-14.7c0.3-1.4,1.7-2.4,3.1-2.2
			c2.8,0,7.2,26.2,6.5,26.8s-3.3-0.6-4.6-1.9c-2.7-2.5-6.5-3.3-10-2.2c-2.2,0.7-6.3,1.6-10.2,2.5c-2.7,0.6-5.4,1.2-7,1.5
			c-1.4,0.3-2.9-0.2-3.8-1.3c-1.4-1.5-2-3.5-1.7-5.5C456.5,382.7,456.7,382.5,456.8,382.3z"/>
		
			<ellipse transform="matrix(0.9682 -0.2501 0.2501 0.9682 -78.5605 134.7173)" class="st2" cx="490.9" cy="376.5" rx="4.7" ry="13.7"/>
		
			<linearGradient id="SVGID_11_" gradientUnits="userSpaceOnUse" x1="125.9639" y1="782.9957" x2="123.8009" y2="782.7727" gradientTransform="matrix(9.0179 -2.329 -6.8595 -26.56 6544.1621 20357.6348)">
			<stop  offset="0" style="stop-color:#010101;stop-opacity:0"/>
			<stop  offset="0.95" style="stop-color:#010101"/>
		</linearGradient>
		<path class="st15" d="M487.5,363.3c2.5-0.6,6,4.8,7.9,12.1c1.9,7.3,1.4,13.8-1.1,14.4c-2.5,0.6-6-4.8-7.9-12.1
			C484.5,370.4,485,363.9,487.5,363.3z"/>
		
			<linearGradient id="SVGID_12_" gradientUnits="userSpaceOnUse" x1="554.0357" y1="803.5231" x2="558.1887" y2="803.7681" gradientTransform="matrix(2.7191 -0.7008 -2.0624 -8.0025 2534.8105 6341.1499)">
			<stop  offset="0" style="stop-color:#010101;stop-opacity:0"/>
			<stop  offset="0.95" style="stop-color:#010101"/>
		</linearGradient>
		<path class="st16" d="M490.2,373.4c0.8-0.2,1.8,1.4,2.4,3.7s0.4,4.2-0.3,4.4c-0.8,0.2-1.8-1.4-2.4-3.7
			C489.3,375.5,489.5,373.6,490.2,373.4z"/>
		
			<linearGradient id="SVGID_13_" gradientUnits="userSpaceOnUse" x1="261.3122" y1="814.541" x2="259.7642" y2="814.286" gradientTransform="matrix(5.284 0 0 -9.732 1111.1815 7696.7212)">
			<stop  offset="0" style="stop-color:#010101;stop-opacity:0"/>
			<stop  offset="0.95" style="stop-color:#010101"/>
		</linearGradient>
		<path class="st17" d="M489.4,372.7l-3.5,0.5c0,0,1.4,8.5,2.9,9.3l2.4-1.8L489.4,372.7z"/>
		
			<linearGradient id="SVGID_14_" gradientUnits="userSpaceOnUse" x1="-34.0183" y1="680.0063" x2="-32.9333" y2="678.3633" gradientTransform="matrix(12.824 0 0 -11.447 1518.7006 9007.5947)">
			<stop  offset="0" style="stop-color:#010101;stop-opacity:0"/>
			<stop  offset="0.95" style="stop-color:#010101"/>
		</linearGradient>
		<path class="st18" d="M464.8,383.9c0,0,1,4.3,4.2,4.4l-7.9,1.8c0,0-2.8-0.2-3.4-1.3s-3.4-5.1,0.6-8.2l6.4-2
			C464.2,380.4,464.3,382.2,464.8,383.9z"/>
		
			<linearGradient id="SVGID_15_" gradientUnits="userSpaceOnUse" x1="126.6352" y1="752.9036" x2="129.7662" y2="752.8566" gradientTransform="matrix(9.419 0 0 -19.2 1344.3673 14896.5059)">
			<stop  offset="0" style="stop-color:#010101;stop-opacity:0"/>
			<stop  offset="0.95" style="stop-color:#010101"/>
		</linearGradient>
		<path class="st19" d="M483.6,368.4c-0.3,6.8,1.4,13.5,5,19.2c-2.3-1.6-5.1-2.4-7.9-2.1c0,0-2.3-8.6-1.3-10.9
			C480.7,372.3,482.1,370.3,483.6,368.4z"/>
		<path class="st2" d="M464.7,389.2l2.3,12.9l-0.1,5.2l6.9-1.5l-0.8-5.2l-2.9-12.8L464.7,389.2z"/>
		
			<linearGradient id="SVGID_16_" gradientUnits="userSpaceOnUse" x1="-93.2803" y1="756.2297" x2="-92.2803" y2="756.2297" gradientTransform="matrix(9.037 0 0 -19.465 1307.7205 15117.5645)">
			<stop  offset="0" style="stop-color:#010101;stop-opacity:0"/>
			<stop  offset="0.95" style="stop-color:#010101"/>
		</linearGradient>
		<path class="st20" d="M464.7,389.2l2.3,12.9l-0.1,5.2l6.9-1.5l-0.8-5.2l-2.9-12.8L464.7,389.2z"/>
		
			<linearGradient id="SVGID_17_" gradientUnits="userSpaceOnUse" x1="-84.1665" y1="756.9399" x2="-83.1725" y2="756.9399" gradientTransform="matrix(12.1805 0 0 -23.4708 1490.2404 18164.8789)">
			<stop  offset="0" style="stop-color:#E5C6D6"/>
			<stop  offset="0.42" style="stop-color:#EAD4D0"/>
			<stop  offset="1" style="stop-color:#F0E9CB"/>
		</linearGradient>
		<path class="st21" d="M467.5,402.5c-1.8-2.7-2.1-6-2.4-9.3c-0.3-1.4,0-2.9,0.7-4.1c0.7-0.7,1.6-1.2,2.6-1.4
			c1.4-0.6,2.9-0.7,4.4-0.4c1.5,0.6,2.7,1.8,3.2,3.4c0.5,1.5,0.7,3.1,0.7,4.7l0.2,5l0.3,6.5c0.1,0.8,0,1.7-0.4,2.5
			C473.8,414,468.7,404.3,467.5,402.5z"/>
		<path class="st10" d="M577.4,427.5c4.1,11,7.5,22.2,10.1,33.5c-4,0.5-8,0.1-12,0.3c-13,0.7-24.5,8-35.4,15
			c6.6-4.2-15.5-25.3-4.2-33c5-3.5,14.6-4.2,20.4-6.4C563.6,434.2,570.6,431.1,577.4,427.5z"/>
		<path class="st10" d="M228.4,486.6c-1.7-0.8-3.6-1.3-5.5-1.6c-2.4-0.1-4.7,0.3-7,1c-14.8,3.7-29.8,5.2-44.9,6.6l-47,4.6
			c19.5,14.6,38.7,29.7,57.6,45.1c22.1-14.6,47.6-23.1,74-24.6c3.7-0.2,7.5-0.3,10.8-1.8c13.8-6.1-2.4-12.6-8.7-15.8
			C248.2,495.1,238.4,490.6,228.4,486.6z"/>
		<path class="st10" d="M591.3,560.4c13.6-6.2,28.4-9.5,42.6-14.2c-11,5.3-22,10.6-31,18.9c-12.6,11.7-20.3,28.6-35,37.6
			c-11.3,6.8-25,8.1-37.3,3.4c0.4,0.1,12.2-17.4,13.4-19c6-7.6,6.2-6.6,14-8.2c7.2-1.5,7-0.5,13.7-5.9
			C577.7,568,584.3,563.7,591.3,560.4L591.3,560.4z"/>
		<path class="st10" d="M236.5,408.7l18.7,19.3c0.6,0.8,1.4,1.4,2.3,1.8c0.7,0.3,1.5,0.4,2.3,0.4c11.9,0.7,23.7,1.9,35.5,3.5
			c-3.2-6.7-16.1-13.4-22-17.7c-4.6-3.4-9.9-4.2-15.7-5.2C254,410.1,238.6,410.8,236.5,408.7z"/>
		
			<linearGradient id="SVGID_18_" gradientUnits="userSpaceOnUse" x1="-58.725" y1="760.0745" x2="-58.917" y2="759.4795" gradientTransform="matrix(234.5454 0 0 -148.486 14435.3525 113183.3125)">
			<stop  offset="0" style="stop-color:#FFFFFF;stop-opacity:0"/>
			<stop  offset="0.95" style="stop-color:#FFFFFF"/>
		</linearGradient>
		<path class="st22" d="M524.8,319c-11.6,15.8-9.7,40.1,4.2,54c18.5,18.5,48.8,15.4,74.7,11.1c2.2,21.5,23.5,37,44.8,39.9
			s42.8-3.7,63.4-10.2c2.2,11.6,13.3,19.2,24.9,17.1c6.4-1.2,11.9-5.3,15-11c-13.4-16.7-26.8-33.5-36.3-52.6s-14.8-41.1-10.8-62
			c1.4-7.6,3.1-17.5-3.7-21.1c-2.2-1-4.5-1.4-6.9-1.3c-17.9-0.2-35.4,4.9-50.3,14.7c-4.5,2.9-9,6.4-14.4,6.7
			c-4.3,0.2-8.4-1.6-12.5-2.6c-15.3-3.8-30.9,4-46.3,2.5C552.9,302.2,536.3,303.4,524.8,319z"/>
		
			<linearGradient id="SVGID_19_" gradientUnits="userSpaceOnUse" x1="-59.8848" y1="758.1308" x2="-60.0898" y2="757.5368" gradientTransform="matrix(169.1821 0 0 -114.4319 10156.5977 87331.8594)">
			<stop  offset="0" style="stop-color:#FFFFFF;stop-opacity:0"/>
			<stop  offset="0.95" style="stop-color:#FFFFFF"/>
		</linearGradient>
		<path class="st23" d="M191.9,370.7c8.4,12.2,7,30.9-3,41.6c-13.4,14.2-35.2,11.9-53.9,8.6c-1.6,16.6-16.9,28.5-32.3,30.8
			s-30.9-2.8-45.7-7.9c-1.2,6.7-6.6,12.2-12.8,13.2c-6.6,0.8-13-2.7-15.9-8.6c9.7-12.8,19.4-25.8,26.2-40.6s10.6-31.6,7.8-47.8
			c-1-5.8-2.2-13.5,2.7-16.3c1.5-0.7,3.2-1.1,5-1c13-0.1,25.7,3.9,36.3,11.4c3.2,2.3,6.5,4.9,10.4,5.2c3.1,0.2,6-1.2,9-2
			c11-2.9,22.3,3.1,33.5,1.9C171.6,357.8,183.7,358.7,191.9,370.7z"/>
		<path class="st10" d="M705.6,496c-12.4-1.5-24.9-2.2-37.4-2.1c1.3,7.2,2.7,14.3,4.4,21.4c11.3-3.1,23.3-0.4,34.3,3.6
			s21.5,9.5,32.9,12.1c0.9,0.3,1.9,0.2,2.7-0.2c1.3-1,0.3-3-0.7-4.3C730.9,512.3,724.4,498.2,705.6,496z"/>
		<rect x="345.8" y="455.1" class="st1" width="129.5" height="18.8"/>
		<rect x="345.8" y="481.1" class="st1" width="129.5" height="18.8"/>
		<rect x="345.8" y="507.2" class="st1" width="129.5" height="18.8"/>
	</g>
	<path class="st10" d="M795,0c0,0,8.2,176.7,152.2,209.9s191.6,69,210.3,78.3s104.1,56.6,164,196.4s271.3,174.6,271.3,174.6
		s183.4,31.2,268.4-109s146.9-65.6,146.9-65.6l-4.6,196.2l-1229.7-0.7c0,0,0-680.1,0-680.1S795,0,795,0z"/>
</g>
</svg>
