<svg id="7ec08476-8f6f-4839-9824-b42b130050a7" data-name="48c2ca07-b158-4028-9b0e-220deeb879e3" xmlns="http://www.w3.org/2000/svg" xmlns:xlink="http://www.w3.org/1999/xlink" width="320.24" height="340.88" viewBox="0 0 320.24 340.88"><defs><linearGradient id="553ce15d-7c88-49c3-8f28-4132e3f48b1a" x1="-377.24" y1="-0.54" x2="-377.24" y2="0.46" gradientTransform="translate(215439.13 185.99) scale(571 342)" gradientUnits="userSpaceOnUse"><stop offset="0" stop-color="#809cdb"/><stop offset="1" stop-color="#7d44c0"/></linearGradient><linearGradient id="7ee784ba-feee-4dca-bc00-024b9df01fb5" x1="-376.29" y1="4.87" x2="-376.48" y2="5.47" gradientTransform="translate(45104.19 -202.38) scale(119.07 75.38)" gradientUnits="userSpaceOnUse"><stop offset="0" stop-color="#fff" stop-opacity="0"/><stop offset="0.95" stop-color="#fff"/></linearGradient><linearGradient id="99544813-8602-4d75-9f06-9866b92b020d" x1="-376.5" y1="8.63" x2="-376.7" y2="9.23" gradientTransform="translate(32314.95 -205.1) scale(85.89 58.09)" xlink:href="#7ee784ba-feee-4dca-bc00-024b9df01fb5"/><linearGradient id="b8f369ca-8b1d-455e-a191-2bcc39e508c5" x1="-358.17" y1="40.32" x2="-357.46" y2="41.94" gradientTransform="translate(2562.45 -287.74) scale(6.58 11.78)" gradientUnits="userSpaceOnUse"><stop offset="0" stop-color="#010101" stop-opacity="0"/><stop offset="0.95" stop-color="#010101"/></linearGradient><linearGradient id="8989ab2c-5194-4d78-9eec-38544adb618b" x1="-369.76" y1="38.21" x2="-371.53" y2="40.53" gradientTransform="translate(6402.76 -265.91) scale(16.83 12.53)" xlink:href="#b8f369ca-8b1d-455e-a191-2bcc39e508c5"/><linearGradient id="4875a8e1-f8b7-47d4-9a6b-7b67f5f17bb8" x1="-376.05" y1="1.79" x2="-372.58" y2="1.99" gradientTransform="translate(26934.2 -181.53) scale(71.37 150.26)" xlink:href="#b8f369ca-8b1d-455e-a191-2bcc39e508c5"/><linearGradient id="ae89720d-d7ca-4698-8b79-e444f5b37699" x1="-375.31" y1="1.78" x2="-377.81" y2="1.85" gradientTransform="translate(27035.58 -174.84) scale(71.37 150.27)" xlink:href="#b8f369ca-8b1d-455e-a191-2bcc39e508c5"/><linearGradient id="861d3940-f691-42da-ac5d-fae0130a38cf" x1="-376.35" y1="1.15" x2="-376.78" y2="3.61" gradientTransform="translate(44027.68 -143.31) scale(116.53 172.38)" gradientUnits="userSpaceOnUse"><stop offset="0.12" stop-color="#010101" stop-opacity="0"/><stop offset="0.95" stop-color="#010101"/></linearGradient><linearGradient id="5a49f89a-7dc1-4bef-8512-457fee8495dc" x1="-375.57" y1="6.62" x2="-375.61" y2="11.35" gradientTransform="translate(25268.69 -164.45) scale(66.82 55.44)" xlink:href="#b8f369ca-8b1d-455e-a191-2bcc39e508c5"/><linearGradient id="8c90e7bb-712d-4739-b2a7-68de7fbab0a1" x1="-375.34" y1="6.62" x2="-375.39" y2="11.35" gradientTransform="translate(22772.48 -164.46) scale(60.2 55.44)" xlink:href="#b8f369ca-8b1d-455e-a191-2bcc39e508c5"/><linearGradient id="50b4b443-fdfe-4969-8c15-a63494360eac" x1="-368.79" y1="29.59" x2="-367.79" y2="29.59" gradientTransform="translate(5284.33 -279.48) scale(13.84 15.98)" gradientUnits="userSpaceOnUse"><stop offset="0" stop-color="#e5c6d6"/><stop offset="0.42" stop-color="#ead4d0"/><stop offset="1" stop-color="#f0e9cb"/></linearGradient><linearGradient id="48d99f9a-c355-4fe3-bc69-975193cb2992" x1="-366.16" y1="76.79" x2="-365.16" y2="76.79" gradientTransform="translate(4111.29 -271.11) scale(10.76 6.37)" xlink:href="#50b4b443-fdfe-4969-8c15-a63494360eac"/><linearGradient id="a9e18a71-a1c4-4b0b-af1c-fb1978c0bd31" x1="-158.96" y1="13.32" x2="-161.13" y2="13.54" gradientTransform="translate(2003.58 -303.51) scale(4.74 13.95)" xlink:href="#b8f369ca-8b1d-455e-a191-2bcc39e508c5"/><linearGradient id="89c324dd-6fff-4986-b8c8-3ca60cbddb52" x1="350.2" y1="77.58" x2="354.35" y2="77.33" gradientTransform="translate(753.78 -318.08) scale(1.43 4.2)" xlink:href="#b8f369ca-8b1d-455e-a191-2bcc39e508c5"/><linearGradient id="81198c07-55d0-475f-8b34-6b8615b47835" x1="49.27" y1="37.96" x2="47.72" y2="38.21" gradientTransform="translate(1097.35 -298) scale(2.68 4.94)" xlink:href="#b8f369ca-8b1d-455e-a191-2bcc39e508c5"/><linearGradient id="8e8b8bdc-eb2e-4177-9901-74e52065f6bf" x1="-309.6" y1="157.5" x2="-308.52" y2="159.14" gradientTransform="translate(2529.24 -292.61) scale(6.51 5.81)" xlink:href="#b8f369ca-8b1d-455e-a191-2bcc39e508c5"/><linearGradient id="d929b392-f02f-4a40-9d95-cd17a2254867" x1="-132.92" y1="53.24" x2="-129.79" y2="53.29" gradientTransform="translate(1887.66 -292.93) scale(4.78 9.75)" xlink:href="#b8f369ca-8b1d-455e-a191-2bcc39e508c5"/><linearGradient id="cb154610-54a9-4abb-bde4-f0ffc5f168ef" x1="-350.29" y1="48.78" x2="-349.29" y2="48.78" gradientTransform="translate(1807.6 -279.82) scale(4.59 9.88)" xlink:href="#b8f369ca-8b1d-455e-a191-2bcc39e508c5"/><linearGradient id="d0adbaf9-db95-484d-8e4d-77c94d935878" x1="-357.41" y1="40.48" x2="-356.41" y2="40.48" gradientTransform="translate(2410.2 -279.73) scale(6.18 11.92)" xlink:href="#50b4b443-fdfe-4969-8c15-a63494360eac"/></defs><title>Cover-Creative-mob2</title><g id="deb5f881-8be4-441e-ad43-df7b572948a1" data-name="c82a30e7-c877-4cc4-89eb-35c1c0cbfbae"><rect id="fb4cf728-840f-45ae-8c1e-2e1dc7c01245" data-name="d694797c-5dc7-4f51-8b73-6c5e6ab1edc9" x="-250.96" width="571" height="342" fill="url(#553ce15d-7c88-49c3-8f28-4132e3f48b1a)"/><g id="13f5184b-8c53-419e-ac23-5324e8da6d38" data-name="bc2c8af0-f67b-4f96-a421-65a8b962128e"><path id="acc8955b-c890-4cba-9014-41a403a98e31" data-name="ef707a43-2e22-4b0f-a9fd-e4b52983b6be" d="M169.46.56a127.59,127.59,0,0,0-90.24,47.6C59.6,73,50,104.41,31.47,130.07c-18.57,25.82-45.8,45.52-59.31,74.34-20.3,43.27.25,101.06,43.31,121.8,23.91,11.51,51.41,12.15,77.94,12.56l161.84,2.5c19.09.29,38.62.52,56.71-5.58,35.72-12.06,60.73-52.6,51.26-89.09-7.48-28.82-33.14-51.18-36.75-80.7-2-16.68,3.36-33.37,3.61-50.17C331.09,47.1,228.88-3.51,169.46.56Z" fill="#809cdb" opacity="0.24" style="isolation:isolate"/><path id="23851690-1579-4fd2-89b8-dbd864525a1c" data-name="3897c292-28e3-4fa8-b09f-955d3857bf3e" d="M257.42,217.35a138,138,0,0,1,5.13,17c-2,.25-4,0-6.07.16-6.57.37-12.44,4-18,7.61,3.33-2.15-7.87-12.83-2.11-16.76,2.54-1.77,7.39-2.13,10.35-3.23a92.13,92.13,0,0,0,10.68-4.8Z" fill="#fff"/><path id="e5e6b77d-6ba7-4778-9908-ac90df3ede7a" data-name="fcd27690-b692-428a-8cc8-035f018abf1f" d="M80.22,247.35a9.65,9.65,0,0,0-2.78-.81,10.54,10.54,0,0,0-3.52.51c-7.49,1.86-15.14,2.62-22.79,3.37l-23.86,2.35Q42.14,263.9,56.5,275.68a76.19,76.19,0,0,1,37.57-12.5,15.66,15.66,0,0,0,5.51-.91c7-3.09-1.23-6.39-4.41-8Q87.87,250.45,80.22,247.35Z" fill="#fff"/><path id="82032162-2091-4311-b862-2598abd88929" data-name="311847f7-4425-4f6a-8a71-6561771796cd" d="M264.48,284.83c6.92-3.16,14.42-4.8,21.64-7.22-5.56,2.67-11.18,5.4-15.73,9.58-6.41,5.92-10.32,14.51-17.75,19.09A21.68,21.68,0,0,1,233.69,308c.19.07,6.19-8.82,6.81-9.62,3-3.88,3.16-3.33,7.12-4.19,3.66-.78,3.53-.27,6.94-3a46,46,0,0,1,9.92-6.37Z" fill="#fff"/><path id="a2cdd7bd-d7a0-4a92-a034-ff5258ade0a4" data-name="3495fb9c-b659-4a27-b0f5-08bfda08f378" d="M84.34,207.79l9.49,9.79a3.52,3.52,0,0,0,1.17.93,3.4,3.4,0,0,0,1.18.2c6,.34,12,.94,18,1.76-1.64-3.41-8.16-6.81-11.17-9-2.36-1.7-5-2.11-8-2.62C93.21,208.53,85.4,208.88,84.34,207.79Z" fill="#fff"/><path id="7ef435b7-61e1-43a4-944d-ff6856c91ec1" data-name="b1d2df7d-291d-49d7-befb-05207fdc63cf" d="M230.7,162.27c-5.88,8-4.95,20.37,2.14,27.4,9.41,9.37,24.8,7.83,37.91,5.63,1.1,10.9,11.92,18.76,22.77,20.25s21.72-1.87,32.16-5.18a10.83,10.83,0,0,0,20.23,3c-6.79-8.46-13.63-17-18.45-26.71S320,165.87,322,155.22c.74-3.85,1.57-8.9-1.9-10.73a7.43,7.43,0,0,0-3.48-.65,45.94,45.94,0,0,0-25.55,7.46c-2.27,1.49-4.58,3.25-7.29,3.4-2.17.13-4.25-.81-6.36-1.32-7.77-1.92-15.69,2-23.53,1.25C245,153.77,236.54,154.34,230.7,162.27Z" fill="url(#7ee784ba-feee-4dca-bc00-024b9df01fb5)"/><path id="fe9319b9-6dfa-481b-9620-614e98cd06e6" data-name="c41244ea-f0a4-43d5-9440-ac73bc1772f9" d="M61.72,188.53c4.27,6.2,3.57,15.7-1.53,21.12-6.82,7.23-17.9,6-27.36,4.34-.79,8.41-8.59,14.46-16.42,15.62s-15.67-1.44-23.21-4a8.27,8.27,0,0,1-6.51,6.71,7.89,7.89,0,0,1-8.06-4.38c4.9-6.52,9.83-13.11,13.31-20.59s5.41-16.07,3.93-24.28c-.52-2.94-1.12-6.86,1.38-8.27a5.05,5.05,0,0,1,2.51-.5,31.56,31.56,0,0,1,18.43,5.77c1.64,1.15,3.3,2.5,5.26,2.62,1.56.09,3.06-.62,4.59-1,5.6-1.48,11.31,1.56,17,1C51.43,182,57.53,182.41,61.72,188.53Z" fill="url(#99544813-8602-4d75-9f06-9866b92b020d)"/><path id="b8a429c5-cd4f-4627-81c1-45fc2be8b27b" data-name="fafe1bcc-5ac6-438c-bc7c-ada99fbbb506" d="M322.5,252.11a141.93,141.93,0,0,0-19-1.07q1,5.47,2.22,10.87c5.72-1.59,11.85-.22,17.41,1.84s10.91,4.81,16.7,6.12a1.58,1.58,0,0,0,1.36-.11c.64-.52.16-1.54-.34-2.2C335.35,260.4,332.07,253.23,322.5,252.11Z" fill="#fff"/><path id="7424e0db-b1f3-4f42-84f1-277d9d5ddc4c" data-name="a01f0ebb-39a9-4e87-adcd-4fc69ca2d8bc" d="M198.19,221.65H149.83l-22.32-55.92,89.64-2.3ZM151.61,219h44.71l17.24-52.94-82.2,2.11Z" fill="#809cdb"/><path id="c49e2330-d923-47b2-8a96-0a6b276b9ba6" data-name="3824b042-595d-47b2-b82a-bfba9f155915" d="M210,185.5l-3.39,1.8-3.18,10,3-2Z" fill="url(#b8f369ca-8b1d-455e-a191-2bcc39e508c5)"/><path id="e044243d-4559-4a9b-aa74-1614fd8b3a97" data-name="0267fbf3-a541-4f0c-87e6-928369dccf79" d="M184,195.1a13.42,13.42,0,0,0-6.74-.47,12.61,12.61,0,0,0-4.53,2.54,40.16,40.16,0,0,0-13.26,19c-.31,1-.55,2.19.15,3a3.56,3.56,0,0,0,2.22.87q9.71,1.4,19.48,2.36a6.2,6.2,0,0,0,2.35-.08,4.9,4.9,0,0,0,2-1.32c3.13-3.08,4.48-7.39,5.71-11.53a17.47,17.47,0,0,0,1-5.36C192.31,199,188.72,196.4,184,195.1Z" fill="#809cdb"/><path id="ca6759be-6d9e-4ba4-b583-833fd0821dd8" data-name="bdfdc5dc-8894-4e8e-8d1b-d57d55d0133b" d="M174.21,206.41l1.77,4.21a7.71,7.71,0,0,0,1.61,2.73c1,1,2.56,1.34,3.9,1.94a9.84,9.84,0,0,1,4.22,3.6,43.35,43.35,0,0,1-7.64-.31,7.89,7.89,0,0,1-2.29-.59c-1.42-.67-1-2.4-2.38-3.17-1-.55-3.5-.18-4.51-.59C169.45,211.25,171.89,208.28,174.21,206.41Z" fill="url(#8989ab2c-5194-4d78-9eec-38544adb618b)"/><path id="582ccbeb-fe2c-42aa-bf5c-bc3b201a7b06" data-name="8350688c-d035-4b72-a91a-7e46ef7c1a43" d="M106,29.45A68,68,0,0,0,91,120c3.14,4.84,6.89,9.28,9.79,14.26,5.57,9.58,8.24,21.4,16.89,28.27,6.75,5.36,15.81,6.56,24.4,7.31a10,10,0,0,0,4.22-.23c3-1,4.39-4.56,4.82-7.73,1.17-8.74-1.69-17.44-4-26a203.06,203.06,0,0,1-4-86.78c1.5-8.72,6.17-24.23-5.08-28.23C127.34,17.08,114.27,22.92,106,29.45Z" fill="#809cdb"/><path id="f2b1ef44-52f7-4320-8e07-821e0d10e538" data-name="cd41439f-d892-4d71-801e-671c28d770d9" d="M112.34,28.47a68.06,68.06,0,0,0-15,90.53c3.14,4.83,6.9,9.27,9.8,14.26,5.57,9.57,8.23,21.38,16.88,28.27,6.76,5.35,15.82,6.55,24.4,7.3a10.19,10.19,0,0,0,4.22-.23c3-1,4.38-4.56,4.82-7.73,1.18-8.74-1.68-17.44-4-26a203.2,203.2,0,0,1-4-86.81c1.5-8.71,6.17-24.22-5.08-28.2C133.7,16.11,120.64,21.94,112.34,28.47Z" fill="url(#4875a8e1-f8b7-47d4-9a6b-7b67f5f17bb8)"/><path id="db7cd246-b142-486d-b8bb-a119376722b5" data-name="f515f51a-1fab-4cce-9503-51ac57cb8f51" d="M236.48,28.35a68.06,68.06,0,0,1,15,90.52c-3.14,4.84-6.9,9.27-9.8,14.26-5.57,9.57-8.23,21.4-16.88,28.27C218,166.76,209,168,200.4,168.71a10.24,10.24,0,0,1-4.23-.23c-3-1-4.38-4.56-4.81-7.73-1.18-8.74,1.68-17.45,4-26a203,203,0,0,0,4-86.81c-1.5-8.72-6.16-24.23,5.09-28.21C215.11,16,228.19,21.82,236.48,28.35Z" fill="#809cdb"/><path id="6a6c0c77-a176-47c6-93ac-0303ac40db7d" data-name="87fe8ea1-3815-43ab-91c1-dd6cf256bcc6" d="M233.17,30.56a68,68,0,0,1,15,90.52c-3.14,4.84-6.89,9.27-9.79,14.26-5.57,9.57-8.23,21.39-16.89,28.27-6.75,5.36-15.81,6.56-24.4,7.31a10.19,10.19,0,0,1-4.22-.23c-3-1-4.38-4.56-4.81-7.74-1.18-8.73,1.68-17.44,4-25.95a203.2,203.2,0,0,0,4-86.81c-1.5-8.72-6.17-24.23,5.07-28.23C211.81,18.19,224.88,24,233.17,30.56Z" fill="url(#ae89720d-d7ca-4698-8b79-e444f5b37699)"/><path id="9bd82999-cf39-499e-adf7-da2b9ec60e6c" data-name="8cbf799c-b7ab-4e51-8c4b-7be0d2bbf1ae" d="M105.2,55.47c2.53-10.53,7.19-20.79,14.85-28.45,11.13-11.13,27.28-15.61,43-17.49,15.11-1.82,31.07-1.48,44.67,5.36,17.25,8.67,28.4,27.22,30.55,46.41s-3.93,38.71-14.37,55c-7.06,11-16.28,21.11-19.49,33.79-1.85,7.27-1.84,15.57-6.92,21.09-2.92,3.16-7.06,4.84-11.14,6.2-13.74,4.55-32,6.41-43.71-4.23-7.44-6.76-8.08-17.22-11.7-26.09-6-14.7-17.23-26.38-22.71-41.42a88,88,0,0,1-2.94-50.12Z" fill="#809cdb"/><path id="d3383565-fb37-42d6-938a-87808b6856d3" data-name="42a00a07-330d-4011-9335-229024d9a270" d="M113.31,55.47c2.17-10.53,6.17-20.79,12.74-28.45,9.56-11.13,23.43-15.61,36.84-17.49,13-1.82,26.67-1.48,38.35,5.36,14.8,8.67,24.37,27.22,26.22,46.41s-3.38,38.71-12.35,55c-6.06,11-14,21.1-16.72,33.79-1.58,7.27-1.58,15.57-5.94,21.09-2.5,3.16-6.07,4.84-9.56,6.22-11.76,4.56-27.47,6.41-37.51-4.22-6.38-6.77-6.94-17.23-10-26.09-5.16-14.72-14.8-26.41-19.5-41.46A101.55,101.55,0,0,1,113.31,55.47Z" fill="url(#861d3940-f691-42da-ac5d-fae0130a38cf)"/><rect id="1e834143-f850-4a77-b1e4-3bb6bbb39753" data-name="1688b1a6-57bc-41c3-8563-4289bace0eb1" x="139.46" y="219.49" width="66.83" height="58.02" rx="12.35" ry="12.35" fill="#809cdb"/><path id="f1747fcb-d22c-4817-b37c-62232875d15d" data-name="fabd3567-7de3-425d-90e7-374f5fa873af" d="M206.27,229.11v41.27a7.11,7.11,0,0,1-7.09,7.12H146.57a7.11,7.11,0,0,1-7.12-7.1h0V229.11a7.12,7.12,0,0,1,7.12-7.06h52.61A7.1,7.1,0,0,1,206.27,229.11Z" fill="url(#5a49f89a-7dc1-4bef-8512-457fee8495dc)"/><path id="a3776a21-3630-4d8b-8bd8-6bf6918835c9" data-name="abd9bb2e-7e2f-47b7-bad3-0ca5485fc388" d="M206.27,229.11v41.27a7.11,7.11,0,0,1-7.09,7.12h-46a7.13,7.13,0,0,1-7.1-7.12h0V229.11a7.12,7.12,0,0,1,7.1-7.06h46A7.1,7.1,0,0,1,206.27,229.11Z" fill="url(#8c90e7bb-712d-4739-b2a7-68de7fbab0a1)"/><path id="1d739e24-15d4-4aa3-bf9e-a1acf729e119" data-name="81515869-4ac6-49fa-a259-c8779cfa6bbb" d="M191.18,211.07a39.86,39.86,0,0,1,6.34,9,1.33,1.33,0,0,1,.21.91,1.31,1.31,0,0,1-.67.68q-6.47,4-13,7.73A3.53,3.53,0,0,1,182,230a3.3,3.3,0,0,1-1.25-.49,33.44,33.44,0,0,1-7.93-6.22,1,1,0,0,1,.16-1.82,105.76,105.76,0,0,1,8.82-6.19C184.3,213.82,188.11,211.07,191.18,211.07Z" fill="#fff"/><path id="8bbd94be-f334-4849-92f3-47a831f0337a" data-name="d0ff8637-6ad0-49ad-a6db-407a08c0f5c2" d="M186.22,180.76c-3.27,1.15-6,3.8-9.41,4.23-.63.08-1.35.13-1.71.64a1.69,1.69,0,0,0,.28,1.88,8.84,8.84,0,0,1,1.29,1.57c.21.42.27.9.5,1.31a3.52,3.52,0,0,0,1.49,1.18c2.89,1.48,6,3,9.2,2.8a8.89,8.89,0,0,0,7.06-4.36c1.14-2,1.76-6.12.27-8.17C193.43,179.44,188.61,179.93,186.22,180.76Z" fill="#606161"/><path id="ecd1a91c-d4b2-4f39-96e5-2db96f6545e7" data-name="c34fd67b-57e4-49ac-b376-31947c5fded2" d="M193.25,195.53a4.69,4.69,0,0,1-1.68,2.44,3.62,3.62,0,0,1-2.14.43,13.43,13.43,0,0,1-2.16-.47,1.56,1.56,0,0,0-1,0,1.39,1.39,0,0,0-.62.58,5.91,5.91,0,0,0-.66,1.39,2.46,2.46,0,0,1-.42,1,2,2,0,0,1-1.55.46,1.72,1.72,0,0,1-.87-.14,1.69,1.69,0,0,1-.64-1.51c0-.84,0-1.68.05-2.51a9.55,9.55,0,0,1,2-6.53c1.33-1.87,2.86-3.77,5-4.61a13.23,13.23,0,0,1,4-.64,4.72,4.72,0,0,1,1.5.08c2,.54,1.06,3,.79,4.47A32.43,32.43,0,0,1,193.25,195.53Z" fill="url(#50b4b443-fdfe-4969-8c15-a63494360eac)"/><path id="47cdf896-bd44-4339-9890-02802337f9e4" data-name="31fad893-080a-4df1-bdea-b61b20f289cc" d="M185.25,191c0,.47-.08,1.08-.53,1.2a2.29,2.29,0,0,1-.33-.79c-.11-.27-.32-.54-.59-.56a.87.87,0,0,0-.44.16,1.55,1.55,0,0,0-.77.93c-.12.59.32,1.18.16,1.77-.06.21-.26.42-.47.36a.63.63,0,0,1-.28-.28,17.33,17.33,0,0,1-1.1-2.25,3.33,3.33,0,0,1-.25-.87,2.63,2.63,0,0,1,.17-1,6.15,6.15,0,0,1,2-2.64,18.51,18.51,0,0,1,2.85-1.76c.65-.35,2.09-1.18,2.83-.59s-.45,1.3-.84,1.62A6.54,6.54,0,0,0,185.25,191Z" fill="#606161"/><path id="87dbef30-c8dc-4136-9fea-ee4eba8c31a1" data-name="69920dd6-7919-43b4-9615-89762234639d" d="M194.38,203l5.89,8.24a2,2,0,0,0,1.26-1.67,7.39,7.39,0,0,0-.17-2.2,17.6,17.6,0,0,1-.22-3.32,3.51,3.51,0,0,1,.66-2.28c1-1.12,2.9-.78,3.9.3a7.38,7.38,0,0,1,1.5,4.08,43.7,43.7,0,0,1,.49,8.16,5.72,5.72,0,0,1-1.18,3.74,4.85,4.85,0,0,1-2.58,1.22c-5.12,1-10.56-1.66-13.57-5.92a19.07,19.07,0,0,1-3.25-12.57C187.74,194.88,192.73,200.71,194.38,203Z" fill="#809cdb"/><path id="fa93ab0a-7efd-4f69-b309-b28f2d66e3dc" data-name="9c4c82f8-0650-448d-b306-d5d7c5e4e421" d="M163.53,213.47c-.33,1.1-.59,2.4.1,3.33s1.94,1.08,3.07,1.18l3.2.24c1.91.15,4.11.18,5.38-1.27a6.26,6.26,0,0,0,1-2,2.05,2.05,0,0,0,.16-1.44,3.07,3.07,0,0,0-.93-1c-1.32-1.26-1-3.48-.14-5.06s2.32-2.82,3.22-4.4a8.07,8.07,0,0,0,1-3.53,1.91,1.91,0,0,0-.13-1,1.93,1.93,0,0,0-.91-.81C170.46,193.68,165.06,208.31,163.53,213.47Z" fill="none"/><path id="b5aad55f-5905-40e1-8ca6-e3d80afe7bb9" data-name="daea882e-a8ae-425c-b364-44cc017110d4" d="M179.73,215.41a3,3,0,0,1,1.17.24,2.85,2.85,0,0,1,1.22,2.31,3.5,3.5,0,0,1,0,1.51,2.38,2.38,0,0,1-1.18,1.26,6.64,6.64,0,0,1-3.89.35c-.84-.09-1.86-.35-2.06-1.17-.11-.44,0-1-.42-1.24a.7.7,0,0,0-.35-.06,7.32,7.32,0,0,1-1.48,0,1.56,1.56,0,0,1-1.18-.8,2,2,0,0,1,.1-1.48c.51-1.4,1.36-1.61,2.65-1.32A36.42,36.42,0,0,0,179.73,215.41Z" fill="url(#48d99f9a-c355-4fe3-bc69-975193cb2992)"/><path id="d17794d3-c255-4f81-8dc4-354dd3a2ce53" data-name="73a70fdd-24a7-4fba-8601-fe178d501e95" d="M196.18,194.41a2.34,2.34,0,0,1,1.46-1.13c2.88-.68,11.9-3.18,12.43-7.48a1.43,1.43,0,0,1,1.58-1.11c1.41,0,3.66,13.3,3.28,13.58s-1.66-.33-2.35-.94a5.17,5.17,0,0,0-5.07-1.12c-1.14.35-3.22.83-5.16,1.25-1.4.3-2.72.59-3.57.74a2,2,0,0,1-1.94-.67,3.42,3.42,0,0,1-.85-2.8Z" fill="#809cdb"/><ellipse id="cb00a572-1f1e-49df-8037-c14f18b6cb61" data-name="a5d4c195-bb7c-42be-93af-9f0e9d8222b3" cx="213.88" cy="191.84" rx="2.36" ry="6.97" transform="translate(-41.11 59.45) rotate(-14.45)" fill="#809cdb"/><ellipse id="34bf2476-610d-483a-ad3a-4f450d111e91" data-name="c73e7bb7-744b-4428-a9e7-cde43712b36b" cx="213.88" cy="191.84" rx="2.36" ry="6.97" transform="translate(-41.11 59.45) rotate(-14.45)" fill="url(#a9e18a71-a1c4-4b0b-af1c-fb1978c0bd31)"/><ellipse id="76b4f5aa-f5b7-4cc0-8a32-235be3884de1" data-name="a17628c3-61f2-4854-a372-35d205f046eb" cx="213.67" cy="191.93" rx="0.71" ry="2.1" transform="translate(-41.13 59.39) rotate(-14.45)" fill="url(#89c324dd-6fff-4986-b8c8-3ca60cbddb52)"/><path id="8a235cc0-98bf-4002-a5cf-0152b9019627" data-name="6639c9bc-ba33-4061-a2ed-5fd8385ec031" d="M212.72,189.54l-1.8.24s.69,4.33,1.45,4.7l1.23-.9Z" fill="url(#81198c07-55d0-475f-8b34-6b8615b47835)"/><path id="48edc6f2-1d68-4239-a686-d6f0656580b1" data-name="c620eca3-d71a-4b1a-bafb-50c17f625311" d="M200.26,195.21s.48,2.2,2.11,2.26l-4,.91s-1.44-.08-1.72-.66-1.72-2.59.31-4.15l3.24-1A4.93,4.93,0,0,0,200.26,195.21Z" fill="url(#8e8b8bdc-eb2e-4177-9901-74e52065f6bf)"/><path id="79c6c3e9-fea0-4719-83b5-8b82e2680051" data-name="1761c626-54b9-4841-991f-c7e626e92a43" d="M209.82,187.35a16.77,16.77,0,0,0,2.55,9.75,5.94,5.94,0,0,0-4-1.08s-1.18-4.35-.67-5.56A18.35,18.35,0,0,1,209.82,187.35Z" fill="url(#d929b392-f02f-4a40-9d95-cd17a2254867)"/><path id="533d4dfe-4427-4366-a60d-6e74bec03237" data-name="c04acdca-3598-478d-8657-c14d3054a58d" d="M200.23,197.89l1.14,6.55v2.66l3.48-.77-.42-2.63L203,197.21Z" fill="#809cdb"/><path id="c3eb9c81-a20d-4ad6-adf7-8b0214b29c0a" data-name="ddec2b10-f66f-4485-a297-0659253884c8" d="M200.23,197.89l1.14,6.55v2.66l3.48-.77-.42-2.63L203,197.21Z" fill="url(#cb154610-54a9-4abb-bde4-f0ffc5f168ef)"/><path id="91594125-b05e-49c3-9074-73899ae3dfc9" data-name="9e0d5c7d-5b43-45b5-8483-77eb880b027f" d="M201.62,204.68a9.47,9.47,0,0,1-1.21-4.71,2.85,2.85,0,0,1,.38-2.07,2.62,2.62,0,0,1,1.32-.73,3.75,3.75,0,0,1,2.22-.19,2.78,2.78,0,0,1,1.6,1.72,8.14,8.14,0,0,1,.34,2.4l.11,2.53.14,3.31a2.19,2.19,0,0,1-.2,1.26C204.82,210.51,202.24,205.58,201.62,204.68Z" fill="url(#d0adbaf9-db95-484d-8e4d-77c94d935878)"/><rect id="5a727ca0-b85d-4f70-b6ee-338ffb527d90" data-name="58bec299-bfc2-4e45-bde5-6639dceecd2f" x="139.83" y="231.36" width="65.72" height="9.55" fill="#809cdb" opacity="0.24" style="isolation:isolate"/><rect id="8dd33f28-c0ad-4713-acc9-5758b69db4b6" data-name="84e4fe4f-e296-49b8-b86a-228c958ab9dc" x="139.83" y="244.58" width="65.72" height="9.55" fill="#809cdb" opacity="0.24" style="isolation:isolate"/><rect id="82883ff5-e35c-4ef3-a0e8-56be3c33d8cc" data-name="f6852046-b590-4b53-82bc-ee174056e2da" x="139.83" y="257.8" width="65.72" height="9.55" fill="#809cdb" opacity="0.24" style="isolation:isolate"/></g><path id="ef462c9b-ac80-43c0-90f3-4f1943800236" data-name="bf7653f8-0be1-4129-98e0-42453e8f24c8" d="M.59,245.65h0c-1,15.6,79,77.37,165,78.73s154.73-56,154.66-74.61,1,95.14.38,95.47H.59Z" fill="#fff"/></g></svg>