<svg id="4457ad7c-607f-4feb-a0dc-8568d10ecb83" data-name="9d662865-5558-4a85-b75b-651cf21a5b5c" xmlns="http://www.w3.org/2000/svg" width="254.08" height="134.87" viewBox="0 0 254.08 134.87"><title>everbrand-logo-muted</title><line x1="51.21" y1="1.5" x2="54.83" y2="2.6" fill="#696969"/><path d="M123.07,35c-27,16.53-55.29,38.15-71.49,27.4C36.37,52.27,36.52,17,49.12,5.76c-1.31.08-2.65.17-3.88.27C33,20.09,33.57,56.49,49.75,67.27c18,12,49.19-12.13,79.21-30.52v-.12L125.19,34" transform="translate(0 -0.01)" fill="#696969"/><path d="M202.33,4.71c-18-12-49.2,12.12-79.22,30.51v.12L126.87,38l2.3-1h.11c27-16.53,55-38.19,71.22-27.43,15.88,10.53,15,48.62.74,58-6.14,4-14.9,2.76-24.85-1.35a6.1,6.1,0,0,1-.6,1.64c11,4.49,20.59,5.83,27.36,1.39C219,58.78,220,16.43,202.33,4.71Z" transform="translate(0 -0.01)" fill="#696969"/><path d="M129.16,37l-2.3,1c12.3,8.69,25.55,17.91,37.9,24.54A6.35,6.35,0,0,1,165.7,61C153.71,54.42,140.81,45.27,129.16,37Z" transform="translate(0 -0.01)" fill="#696969"/><path d="M50.19,2l2.3,1.49a15,15,0,0,1,2.34-.89C71.05-1.93,123.16,35,123.07,35l2.14-1.07C98.38,15,66.65-6.65,50.19,2Z" transform="translate(0 -0.01)" fill="#696969"/><path d="M48.93,2.73A18.13,18.13,0,0,0,45.24,6c1.23-.1,2.57-.19,3.88-.27a15.14,15.14,0,0,1,1.73-1.35,12.46,12.46,0,0,1,1.64-.91L50.19,2C49.76,2.27,49.34,2.47,48.93,2.73Z" transform="translate(0 -0.01)" fill="#696969"/><circle cx="72.54" cy="4.16" r="4.16" fill="#696969"/><ellipse cx="170.47" cy="64.88" rx="4.47" ry="4.41" fill="#696969"/><text transform="translate(0 124.11)" font-size="37.29" fill="#696969" font-family="Futura-Medium, Futura" letter-spacing="0.1em" style="isolation:isolate">EVERBRAND</text></svg>