<svg id="733558d1-16dc-45e1-83dc-ffb6c4f41c64" data-name="Layer 1" xmlns="http://www.w3.org/2000/svg" width="254.05" height="134.88" viewBox="0 0 254.05 134.88"><title>everbrand-logo-white</title><line x1="51.21" y1="1.51" x2="54.83" y2="2.61" fill="#fff"/><path d="M123.07,37.73c-27,16.53-55.29,38.15-71.49,27.4C36.37,55,36.52,19.69,49.12,8.49c-1.31.08-2.65.17-3.88.27C33,22.82,33.57,59.22,49.75,70c18,12,49.19-12.13,79.21-30.52l0-.12-3.77-2.66" transform="translate(0 -2.73)" fill="#fff"/><path d="M202.33,7.44c-18-12-49.2,12.12-79.22,30.51v.12l3.76,2.66,2.3-1,.11,0c27-16.53,55-38.19,71.22-27.43,15.88,10.53,15,48.62.74,58-6.14,4-14.9,2.76-24.85-1.35a6.19,6.19,0,0,1-.6,1.64c10.95,4.49,20.59,5.83,27.36,1.39C219,61.51,220,19.16,202.33,7.44Z" transform="translate(0 -2.73)" fill="#fff"/><path d="M129.16,39.74l-2.3,1c12.3,8.69,25.55,17.91,37.9,24.54a6.48,6.48,0,0,1,.94-1.56C153.71,57.15,140.81,48,129.16,39.74Z" transform="translate(0 -2.73)" fill="#fff"/><path d="M50.19,4.74l2.3,1.49a14.65,14.65,0,0,1,2.34-.89C71.05.8,123.16,37.76,123.07,37.73l2.14-1.07C98.38,17.72,66.65-3.92,50.19,4.74Z" transform="translate(0 -2.73)" fill="#fff"/><path d="M48.93,5.46a18.11,18.11,0,0,0-3.69,3.3c1.23-.1,2.57-.19,3.88-.27a14.9,14.9,0,0,1,1.73-1.35,12.46,12.46,0,0,1,1.64-.91l-2.3-1.49C49.76,5,49.34,5.2,48.93,5.46Z" transform="translate(0 -2.73)" fill="#fff"/><circle cx="72.54" cy="4.17" r="4.16" fill="#fff"/><ellipse cx="170.47" cy="64.89" rx="4.47" ry="4.41" fill="#fff"/><text transform="translate(0 124.12)" font-size="37.29" fill="#fff" font-family="Futura-Medium, Futura" letter-spacing="0.1em">EVERBRAND</text></svg>