<svg xmlns="http://www.w3.org/2000/svg" xmlns:xlink="http://www.w3.org/1999/xlink" width="400.95" height="341.06" viewBox="0 0 400.95 341.06"><defs><linearGradient id="36dae91c-1991-427d-9b4e-ddc3f228f65f" x1="-340.57" y1="4.54" x2="-340.76" y2="5.14" gradientTransform="translate(40887.46 -177.77) scale(119.07 75.38)" gradientUnits="userSpaceOnUse"><stop offset="0" stop-color="#fff" stop-opacity="0"/><stop offset="0.95" stop-color="#fff"/></linearGradient><linearGradient id="305e3d20-b963-4bf2-9010-ae693aec6bb2" x1="-340.78" y1="8.3" x2="-340.98" y2="8.9" gradientTransform="translate(29283.2 -186.21) scale(85.89 58.09)" xlink:href="#36dae91c-1991-427d-9b4e-ddc3f228f65f"/></defs><title>windAsset 2</title><g id="34350f2a-6877-4185-a5de-64605d62fb16" data-name="Layer 2"><g id="bb3fe0dc-c34d-4f33-9d2b-f2b548756edc" data-name="48c2ca07-b158-4028-9b0e-220deeb879e3"><g id="24f7a89e-5033-48e6-8c68-689130394445" data-name="c82a30e7-c877-4cc4-89eb-35c1c0cbfbae"><g id="da917bb3-3642-48e5-a58b-97aefb84294d" data-name="bc2c8af0-f67b-4f96-a421-65a8b962128e"><path id="db7edc7c-3960-4a1d-981f-a18ba1f6a399" data-name="ef707a43-2e22-4b0f-a9fd-e4b52983b6be" d="M205.17.23a127.61,127.61,0,0,0-90.24,47.6c-19.62,24.84-29.22,56.25-47.75,81.91-18.57,25.82-45.8,45.52-59.31,74.34-20.3,43.27.25,101.06,43.31,121.8,23.91,11.51,51.41,12.15,77.94,12.56L291,340.94c19.09.29,38.62.52,56.71-5.58,35.72-12.06,60.73-52.6,51.26-89.09-7.48-28.82-33.14-51.18-36.75-80.7-2-16.68,3.36-33.37,3.61-50.17C366.8,46.77,264.59-3.84,205.17.23Z" fill="#809cdb" opacity="0.24" style="isolation:isolate"/><path id="123e39b3-486f-4024-aad3-dde1564d240b" data-name="3897c292-28e3-4fa8-b09f-955d3857bf3e" d="M293.13,217a136.29,136.29,0,0,1,5.13,17c-2,.25-4,0-6.07.16-6.57.37-12.44,4-18,7.61,3.33-2.15-7.87-12.83-2.11-16.76,2.54-1.77,7.39-2.13,10.35-3.23a92.13,92.13,0,0,0,10.68-4.8Z" fill="#fff"/><path id="85467c6a-0e2c-4b4e-8e85-64cfbfca113f" data-name="fcd27690-b692-428a-8cc8-035f018abf1f" d="M115.93,247a9.56,9.56,0,0,0-2.78-.81,10.54,10.54,0,0,0-3.52.51c-7.49,1.86-15.14,2.62-22.79,3.37L63,252.44q14.88,11.13,29.23,22.91a76.25,76.25,0,0,1,37.57-12.5,15.63,15.63,0,0,0,5.51-.91c7-3.09-1.23-6.39-4.41-8Q123.59,250.11,115.93,247Z" fill="#fff"/><path id="6a018f40-5cdc-493b-b5de-497cd3bf0e2e" data-name="311847f7-4425-4f6a-8a71-6561771796cd" d="M300.19,284.5c6.92-3.16,14.42-4.8,21.64-7.22-5.56,2.67-11.18,5.4-15.73,9.58-6.41,5.92-10.32,14.51-17.75,19.09a21.68,21.68,0,0,1-19,1.72c.19.07,6.19-8.82,6.81-9.62,3-3.88,3.16-3.33,7.12-4.19,3.66-.78,3.53-.27,6.94-3a46.19,46.19,0,0,1,9.92-6.37Z" fill="#fff"/><path id="c470926c-e50c-4803-9bbe-bfe4028b5346" data-name="3495fb9c-b659-4a27-b0f5-08bfda08f378" d="M120.05,207.46l9.49,9.79a3.52,3.52,0,0,0,1.17.93,3.4,3.4,0,0,0,1.18.2c6,.34,12,.94,18,1.76-1.64-3.41-8.16-6.81-11.17-9-2.36-1.7-5-2.11-8-2.62C128.92,208.2,121.11,208.55,120.05,207.46Z" fill="#fff"/><path id="64039d7d-af47-406c-9a78-5da5ab3d9133" data-name="b1d2df7d-291d-49d7-befb-05207fdc63cf" d="M266.41,161.94c-5.88,8-5,20.37,2.14,27.4,9.41,9.37,24.8,7.83,37.91,5.63,1.1,10.9,11.92,18.76,22.77,20.25S351,213.35,361.39,210a10.83,10.83,0,0,0,20.23,3c-6.79-8.46-13.63-17-18.45-26.71s-7.46-20.79-5.46-31.44c.74-3.85,1.57-8.9-1.9-10.73a7.43,7.43,0,0,0-3.48-.65A46,46,0,0,0,326.78,151c-2.27,1.49-4.58,3.25-7.29,3.4-2.17.13-4.25-.81-6.36-1.32-7.77-1.92-15.69,2-23.53,1.25C280.71,153.44,272.25,154,266.41,161.94Z" fill="url(#36dae91c-1991-427d-9b4e-ddc3f228f65f)"/><path id="f2aa5348-cf42-4dba-92bb-8513e3b483a5" data-name="c41244ea-f0a4-43d5-9440-ac73bc1772f9" d="M97.43,188.2c4.27,6.2,3.57,15.7-1.53,21.12-6.82,7.23-17.9,6-27.36,4.34-.79,8.41-8.59,14.46-16.42,15.62s-15.67-1.44-23.21-4A8.26,8.26,0,0,1,22.4,232a7.91,7.91,0,0,1-8.06-4.38c4.9-6.52,9.83-13.11,13.31-20.59s5.41-16.07,3.93-24.28c-.52-2.94-1.12-6.86,1.38-8.27a5.07,5.07,0,0,1,2.51-.5,31.56,31.56,0,0,1,18.43,5.77c1.64,1.15,3.3,2.5,5.26,2.62,1.56.09,3.06-.62,4.59-1,5.6-1.48,11.31,1.56,17,1C87.14,181.67,93.24,182.08,97.43,188.2Z" fill="url(#305e3d20-b963-4bf2-9010-ae693aec6bb2)"/><path id="57422642-8a23-49b2-a2b0-de8d7327d819" data-name="fafe1bcc-5ac6-438c-bc7c-ada99fbbb506" d="M358.21,251.78a141.93,141.93,0,0,0-19-1.07q1,5.47,2.22,10.87c5.72-1.59,11.85-.22,17.41,1.84s10.91,4.81,16.7,6.12a1.58,1.58,0,0,0,1.36-.11c.64-.52.16-1.54-.34-2.2C371.06,260.07,367.78,252.9,358.21,251.78Z" fill="#fff"/></g></g></g></g></svg>